<svg width="24" height="25" viewBox="0 0 24 25" fill="none" xmlns="http://www.w3.org/2000/svg">
<g id="close_FILL0_wght300_GRAD0_opsz24 1">
<path id="Vector" d="M12.0005 13.5538L6.92737 18.6269C6.78892 18.7654 6.61489 18.8362 6.40527 18.8394C6.19567 18.8426 6.01844 18.7718 5.87357 18.6269C5.72869 18.482 5.65625 18.3064 5.65625 18.1C5.65625 17.8936 5.72869 17.718 5.87357 17.5731L10.9466 12.5L5.87357 7.42689C5.73511 7.28844 5.66427 7.1144 5.66107 6.90479C5.65786 6.69519 5.72869 6.51795 5.87357 6.37309C6.01844 6.2282 6.19407 6.15576 6.40047 6.15576C6.60687 6.15576 6.78251 6.2282 6.92737 6.37309L12.0005 11.4462L17.0736 6.37309C17.212 6.23462 17.3861 6.16379 17.5957 6.16059C17.8053 6.15737 17.9825 6.2282 18.1274 6.37309C18.2723 6.51795 18.3447 6.69359 18.3447 6.89999C18.3447 7.10639 18.2723 7.28202 18.1274 7.42689L13.0543 12.5L18.1274 17.5731C18.2658 17.7115 18.3367 17.8856 18.3399 18.0952C18.3431 18.3048 18.2723 18.482 18.1274 18.6269C17.9825 18.7718 17.8069 18.8442 17.6005 18.8442C17.3941 18.8442 17.2184 18.7718 17.0736 18.6269L12.0005 13.5538Z" fill="white"/>
</g>
</svg>
