<svg width="20" height="20" viewBox="0 0 20 20" fill="none" xmlns="http://www.w3.org/2000/svg">
<g id="icons8-discord (3) 2">
<path id="Vector" d="M16.6508 4.30781C15.0586 3.02656 12.5398 2.80937 12.432 2.80156C12.2648 2.7875 12.1055 2.88125 12.0367 3.03593C12.0305 3.04531 11.9758 3.17187 11.9148 3.36875C12.968 3.54687 14.2617 3.90468 15.432 4.63125C15.6195 4.74687 15.6773 4.99375 15.5617 5.18125C15.4852 5.30468 15.3555 5.37187 15.2211 5.37187C15.1492 5.37187 15.0758 5.35156 15.0102 5.31093C12.9977 4.0625 10.4852 4 10.0008 4C9.51641 4 7.00234 4.0625 4.99141 5.31093C4.80391 5.42812 4.55703 5.37031 4.44141 5.18281C4.32422 4.99375 4.38203 4.74843 4.56953 4.63125C5.73984 3.90625 7.03359 3.54687 8.08672 3.37031C8.02578 3.17187 7.97109 3.04687 7.96641 3.03593C7.89609 2.88125 7.73828 2.78437 7.56953 2.80156C7.46172 2.80937 4.94297 3.02656 3.32891 4.325C2.48672 5.10468 0.800781 9.66093 0.800781 13.6C0.800781 13.6703 0.819531 13.7375 0.853906 13.7984C2.01641 15.8422 5.18984 16.3766 5.91328 16.4C5.91641 16.4 5.92109 16.4 5.92578 16.4C6.05391 16.4 6.17422 16.3391 6.24922 16.2359L6.98047 15.2297C5.00703 14.7203 3.99922 13.8547 3.94141 13.8031C3.77578 13.6578 3.76016 13.4047 3.90703 13.2391C4.05234 13.0734 4.30547 13.0578 4.47109 13.2031C4.49453 13.225 6.35078 14.8 10.0008 14.8C13.657 14.8 15.5133 13.2187 15.532 13.2031C15.6977 13.0594 15.9492 13.0734 16.0961 13.2406C16.2414 13.4062 16.2258 13.6578 16.0602 13.8031C16.0023 13.8547 14.9945 14.7203 13.0211 15.2297L13.7523 16.2359C13.8273 16.3391 13.9477 16.4 14.0758 16.4C14.0805 16.4 14.0852 16.4 14.0883 16.4C14.8117 16.3766 17.9852 15.8422 19.1477 13.7984C19.182 13.7375 19.2008 13.6703 19.2008 13.6C19.2008 9.66093 17.5148 5.10468 16.6508 4.30781ZM7.40078 12C6.62734 12 6.00078 11.2844 6.00078 10.4C6.00078 9.51562 6.62734 8.8 7.40078 8.8C8.17422 8.8 8.80078 9.51562 8.80078 10.4C8.80078 11.2844 8.17422 12 7.40078 12ZM12.6008 12C11.8273 12 11.2008 11.2844 11.2008 10.4C11.2008 9.51562 11.8273 8.8 12.6008 8.8C13.3742 8.8 14.0008 9.51562 14.0008 10.4C14.0008 11.2844 13.3742 12 12.6008 12Z" fill="white" fill-opacity="0.6"/>
</g>
</svg>
