<svg width="254" height="338" viewBox="0 0 254 338" fill="none" xmlns="http://www.w3.org/2000/svg">
<path d="M27.0714 278.688L1 337L22.3423 309.94C22.7093 299.229 36.3129 228.679 38.1887 218.132C42.2922 195.551 49.1156 180.72 58.4695 174.053L59.0145 174.841C37.1638 190.416 19.3613 278.688 27.0714 278.688Z" fill="#E5E5E5"/>
<path d="M47.6312 249.85L22.3423 316.038C22.3627 314.972 47.2957 223.622 57.0462 216.672L57.5911 217.46C48.234 224.13 47.6358 249.594 47.6312 249.85Z" fill="#E5E5E5"/>
<path d="M64.4133 174.928C67.0338 174.928 69.1581 172.771 69.1581 170.111C69.1581 167.451 67.0338 165.294 64.4133 165.294C61.7928 165.294 59.6685 167.451 59.6685 170.111C59.6685 172.771 61.7928 174.928 64.4133 174.928Z" fill="#C89D65"/>
<path d="M62.0634 216.353C64.6839 216.353 66.8083 214.196 66.8083 211.536C66.8083 208.876 64.6839 206.719 62.0634 206.719C59.4429 206.719 57.3185 208.876 57.3185 211.536C57.3185 214.196 59.4429 216.353 62.0634 216.353Z" fill="#C89D65"/>
<path d="M45.4193 177.816C46.311 183.598 43.987 188.77 43.987 188.77C43.987 188.77 40.217 184.567 39.3253 178.785C38.4336 173.003 40.7577 167.831 40.7577 167.831C40.7577 167.831 44.5276 172.034 45.4193 177.816Z" fill="#E5E5E5"/>
<path d="M60.9289 191.859C55.4756 193.757 50.0542 192.335 50.0542 192.335C50.0542 192.335 53.4743 187.834 58.9275 185.936C64.3807 184.037 69.8021 185.459 69.8021 185.459C69.8021 185.459 66.3821 189.96 60.9289 191.859Z" fill="#E5E5E5"/>
<path d="M61.104 228.545C58.6359 229.332 56.0075 229.447 53.4818 228.879C55.0855 226.806 57.2454 225.248 59.7012 224.393C62.1571 223.538 64.8041 223.422 67.3234 224.059C65.6729 226.081 63.5282 227.628 61.104 228.545Z" fill="#E5E5E5"/>
<path d="M238.173 136.551C246.362 136.551 253 129.812 253 121.5C253 113.187 246.362 106.448 238.173 106.448C229.985 106.448 223.347 113.187 223.347 121.5C223.347 129.812 229.985 136.551 238.173 136.551Z" fill="#F1F1F1"/>
<path d="M210.733 139.247C216.477 139.247 221.134 134.519 221.134 128.688C221.134 122.857 216.477 118.13 210.733 118.13C204.989 118.13 200.332 122.857 200.332 128.688C200.332 134.519 204.989 139.247 210.733 139.247Z" fill="#F1F1F1"/>
<path d="M81.8179 100.756C86.4237 100.756 90.1576 96.9654 90.1576 92.2898C90.1576 87.6142 86.4237 83.8239 81.8179 83.8239C77.2121 83.8239 73.4784 87.6142 73.4784 92.2898C73.4784 96.9654 77.2121 100.756 81.8179 100.756Z" fill="#F1F1F1"/>
<path d="M95.5482 106.448C98.7791 106.448 101.398 103.789 101.398 100.51C101.398 97.2296 98.7791 94.5707 95.5482 94.5707C92.3173 94.5707 89.6981 97.2296 89.6981 100.51C89.6981 103.789 92.3173 106.448 95.5482 106.448Z" fill="#F1F1F1"/>
<path d="M204.358 13.943C207.879 13.943 210.733 11.0456 210.733 7.47148C210.733 3.89738 207.879 0.999989 204.358 0.999989C200.837 0.999989 197.983 3.89738 197.983 7.47148C197.983 11.0456 200.837 13.943 204.358 13.943Z" fill="#F1F1F1"/>
<path d="M238.173 136.551C246.362 136.551 253 129.812 253 121.5C253 113.187 246.362 106.448 238.173 106.448C229.985 106.448 223.347 113.187 223.347 121.5C223.347 129.812 229.985 136.551 238.173 136.551Z" fill="#F1F1F1"/>
<path d="M210.733 139.247C216.477 139.247 221.134 134.519 221.134 128.688C221.134 122.857 216.477 118.13 210.733 118.13C204.989 118.13 200.332 122.857 200.332 128.688C200.332 134.519 204.989 139.247 210.733 139.247Z" fill="#F1F1F1"/>
<path d="M27.0714 278.688L1 337L22.3423 309.94C22.7093 299.229 36.3129 228.679 38.1887 218.132C42.2922 195.551 49.1156 180.72 58.4695 174.053L59.0145 174.841C37.1638 190.416 19.3613 278.688 27.0714 278.688Z" stroke="#A1A7B8" stroke-width="2"/>
<path d="M47.6312 249.85L22.3423 316.038C22.3627 314.972 47.2957 223.622 57.0462 216.672L57.5911 217.46C48.234 224.13 47.6358 249.594 47.6312 249.85Z" stroke="#A1A7B8" stroke-width="2"/>
<path d="M64.4133 174.928C67.0338 174.928 69.1581 172.771 69.1581 170.111C69.1581 167.451 67.0338 165.294 64.4133 165.294C61.7928 165.294 59.6685 167.451 59.6685 170.111C59.6685 172.771 61.7928 174.928 64.4133 174.928Z" stroke="#A1A7B8" stroke-width="2"/>
<path d="M62.0634 216.353C64.6839 216.353 66.8083 214.196 66.8083 211.536C66.8083 208.876 64.6839 206.719 62.0634 206.719C59.4429 206.719 57.3185 208.876 57.3185 211.536C57.3185 214.196 59.4429 216.353 62.0634 216.353Z" stroke="#A1A7B8" stroke-width="2"/>
<path d="M45.4193 177.816C46.311 183.598 43.987 188.77 43.987 188.77C43.987 188.77 40.217 184.567 39.3253 178.785C38.4336 173.003 40.7577 167.831 40.7577 167.831C40.7577 167.831 44.5276 172.034 45.4193 177.816Z" stroke="#A1A7B8" stroke-width="2"/>
<path d="M60.9289 191.859C55.4756 193.757 50.0542 192.335 50.0542 192.335C50.0542 192.335 53.4743 187.834 58.9275 185.936C64.3807 184.037 69.8021 185.459 69.8021 185.459C69.8021 185.459 66.3821 189.96 60.9289 191.859Z" stroke="#A1A7B8" stroke-width="2"/>
<path d="M61.104 228.545C58.6359 229.332 56.0075 229.447 53.4818 228.879C55.0855 226.806 57.2454 225.248 59.7012 224.393C62.1571 223.538 64.8041 223.422 67.3234 224.059C65.6729 226.081 63.5282 227.628 61.104 228.545Z" stroke="#A1A7B8" stroke-width="2"/>
<path d="M238.173 136.551C246.362 136.551 253 129.812 253 121.5C253 113.187 246.362 106.448 238.173 106.448C229.985 106.448 223.347 113.187 223.347 121.5C223.347 129.812 229.985 136.551 238.173 136.551Z" stroke="#A1A7B8" stroke-width="2"/>
<path d="M210.733 139.247C216.477 139.247 221.134 134.519 221.134 128.688C221.134 122.857 216.477 118.13 210.733 118.13C204.989 118.13 200.332 122.857 200.332 128.688C200.332 134.519 204.989 139.247 210.733 139.247Z" stroke="#A1A7B8" stroke-width="2"/>
<path d="M81.8179 100.756C86.4237 100.756 90.1576 96.9654 90.1576 92.2898C90.1576 87.6142 86.4237 83.8239 81.8179 83.8239C77.2121 83.8239 73.4784 87.6142 73.4784 92.2898C73.4784 96.9654 77.2121 100.756 81.8179 100.756Z" stroke="#A1A7B8" stroke-width="2"/>
<path d="M95.5482 106.448C98.7791 106.448 101.398 103.789 101.398 100.51C101.398 97.2296 98.7791 94.5707 95.5482 94.5707C92.3173 94.5707 89.6981 97.2296 89.6981 100.51C89.6981 103.789 92.3173 106.448 95.5482 106.448Z" stroke="#A1A7B8" stroke-width="2"/>
<path d="M204.358 13.943C207.879 13.943 210.733 11.0456 210.733 7.47148C210.733 3.89738 207.879 0.999989 204.358 0.999989C200.837 0.999989 197.983 3.89738 197.983 7.47148C197.983 11.0456 200.837 13.943 204.358 13.943Z" stroke="#A1A7B8" stroke-width="2"/>
<path d="M238.173 136.551C246.362 136.551 253 129.812 253 121.5C253 113.187 246.362 106.448 238.173 106.448C229.985 106.448 223.347 113.187 223.347 121.5C223.347 129.812 229.985 136.551 238.173 136.551Z" stroke="#A1A7B8" stroke-width="2"/>
<path d="M210.733 139.247C216.477 139.247 221.134 134.519 221.134 128.688C221.134 122.857 216.477 118.13 210.733 118.13C204.989 118.13 200.332 122.857 200.332 128.688C200.332 134.519 204.989 139.247 210.733 139.247Z" stroke="#A1A7B8" stroke-width="2"/>
</svg>
