<svg width="20" height="20" viewBox="0 0 20 20" fill="none" xmlns="http://www.w3.org/2000/svg">
<g id="icons8-instagram (10) 2">
<path id="Vector" d="M14.174 17.4958L5.84068 17.5037C4.00735 17.5054 2.5061 16.0071 2.50401 14.1737L2.4961 5.8404C2.49443 4.00707 3.99276 2.50582 5.8261 2.50374L14.1594 2.49582C15.9928 2.49415 17.494 3.99249 17.4961 5.82582L17.504 14.1592C17.5061 15.9929 16.0073 17.4942 14.174 17.4958Z" fill="white" fill-opacity="0.6"/>
<path id="Vector_2" d="M9.9987 12.9166C8.39078 12.9166 7.08203 11.6083 7.08203 9.99998C7.08203 8.39165 8.39078 7.08331 9.9987 7.08331C11.6066 7.08331 12.9154 8.39165 12.9154 9.99998C12.9154 11.6083 11.6066 12.9166 9.9987 12.9166ZM9.9987 7.91665C8.84995 7.91665 7.91536 8.85123 7.91536 9.99998C7.91536 11.1487 8.84995 12.0833 9.9987 12.0833C11.1474 12.0833 12.082 11.1487 12.082 9.99998C12.082 8.85123 11.1474 7.91665 9.9987 7.91665Z" fill="#121E44"/>
<path id="Vector_3" d="M13.125 7.5C13.4702 7.5 13.75 7.22018 13.75 6.875C13.75 6.52982 13.4702 6.25 13.125 6.25C12.7798 6.25 12.5 6.52982 12.5 6.875C12.5 7.22018 12.7798 7.5 13.125 7.5Z" fill="#121E44"/>
<path id="Vector_4" d="M12.4987 15.4166H7.4987C5.89078 15.4166 4.58203 14.1083 4.58203 12.5V7.49998C4.58203 5.89165 5.89078 4.58331 7.4987 4.58331H12.4987C14.1066 4.58331 15.4154 5.89165 15.4154 7.49998V12.5C15.4154 14.1083 14.1066 15.4166 12.4987 15.4166ZM7.4987 5.41665C6.34995 5.41665 5.41536 6.35123 5.41536 7.49998V12.5C5.41536 13.6487 6.34995 14.5833 7.4987 14.5833H12.4987C13.6474 14.5833 14.582 13.6487 14.582 12.5V7.49998C14.582 6.35123 13.6474 5.41665 12.4987 5.41665H7.4987Z" fill="#121E44"/>
</g>
</svg>
