<svg width="60" height="60" viewBox="0 0 60 60" fill="none" xmlns="http://www.w3.org/2000/svg">
<g id="Frame" clip-path="url(#clip0_93_952)">
<g id="Group">
<path id="Vector" d="M0.968611 57.99C0.971189 58.1479 1.01606 58.3022 1.09856 58.4369C1.18905 58.5511 1.30706 58.6405 1.44154 58.6967C1.57602 58.753 1.72258 58.7742 1.8675 58.7584C2.0202 58.7603 2.17213 58.7365 2.31694 58.688C2.42833 58.6635 2.52798 58.6016 2.59933 58.5127C2.67067 58.4238 2.70941 58.3131 2.7091 58.1991C2.71597 58.1275 2.70439 58.0553 2.67546 57.9894C2.64653 57.9236 2.60121 57.8662 2.54381 57.8227C2.38108 57.7299 2.20384 57.6651 2.01956 57.6312L1.5811 57.5321C1.36812 57.4945 1.16272 57.4224 0.973028 57.3185C0.87275 57.2538 0.791399 57.1637 0.73723 57.0573C0.68306 56.951 0.657999 56.8323 0.664592 56.7132C0.660502 56.5792 0.685343 56.446 0.737419 56.3225C0.789496 56.199 0.867587 56.0882 0.966376 55.9976C1.20485 55.7982 1.51091 55.6982 1.82119 55.7181C2.12791 55.7086 2.43003 55.7944 2.68598 55.9636C2.80722 56.0533 2.90353 56.1725 2.96579 56.3098C3.02806 56.4472 3.05422 56.5981 3.04181 56.7484H2.62978C2.62726 56.6484 2.6028 56.5503 2.55815 56.4608C2.5135 56.3713 2.44974 56.2927 2.37137 56.2306C2.293 56.1684 2.20193 56.1242 2.10459 56.1011C2.00725 56.078 1.90602 56.0765 1.80804 56.0967C1.60825 56.0781 1.40886 56.1363 1.2506 56.2596C1.19734 56.3073 1.15471 56.3657 1.12547 56.4309C1.09624 56.4962 1.08106 56.5668 1.08092 56.6383C1.07709 56.7092 1.09376 56.7797 1.12893 56.8414C1.16411 56.903 1.21631 56.9533 1.27929 56.9861C1.46858 57.0654 1.66574 57.1245 1.86748 57.1623L2.32132 57.2657C2.50212 57.2998 2.67435 57.3694 2.82804 57.4705C2.92994 57.5461 3.01147 57.6459 3.0653 57.7608C3.11913 57.8756 3.14359 58.0021 3.13649 58.1287C3.14891 58.2804 3.11892 58.4326 3.04987 58.5683C2.98081 58.7039 2.87541 58.8178 2.7454 58.8971C2.46915 59.0553 2.15496 59.1352 1.83664 59.1283C1.49396 59.1485 1.15631 59.0384 0.891539 58.8201C0.777399 58.7154 0.688102 58.5865 0.630166 58.4429C0.57223 58.2993 0.547118 58.1446 0.556664 57.9901L0.968611 57.99Z" fill="white"/>
<path id="Vector_2" d="M5.88191 56.0175H6.28288V56.6757H6.65957V56.9993H6.28288V58.5382C6.27892 58.571 6.28476 58.6041 6.29966 58.6335C6.31457 58.6629 6.33786 58.6872 6.3666 58.7033C6.41558 58.7227 6.46825 58.7309 6.52082 58.7275C6.53988 58.7275 6.56047 58.7272 6.5825 58.7264C6.60453 58.7257 6.63022 58.7239 6.65957 58.7209V59.0335C6.61308 59.047 6.56555 59.0565 6.51749 59.0621C6.46448 59.0682 6.41115 59.0712 6.35779 59.0709C6.28816 59.0797 6.21743 59.0714 6.15177 59.0467C6.0861 59.0219 6.02748 58.9815 5.98101 58.929C5.91069 58.8192 5.87607 58.6904 5.88191 58.5602V56.9993H5.5625V56.6756H5.88191V56.0175Z" fill="white"/>
<path id="Vector_3" d="M10.4891 57.6048C10.527 57.6035 10.5638 57.5922 10.5959 57.5721C10.628 57.552 10.6542 57.5238 10.6719 57.4903C10.692 57.4423 10.701 57.3904 10.6984 57.3384C10.7028 57.281 10.6918 57.2234 10.6664 57.1717C10.6411 57.12 10.6023 57.0761 10.5541 57.0444C10.4276 56.9763 10.2845 56.9447 10.141 56.9532C10.0596 56.9448 9.97737 56.9555 9.90087 56.9846C9.82436 57.0136 9.75571 57.0602 9.70041 57.1205C9.6447 57.202 9.61196 57.2971 9.60563 57.3956H9.2355C9.22643 57.2787 9.24773 57.1614 9.29734 57.0552C9.34695 56.9489 9.42319 56.8572 9.51867 56.7891C9.70841 56.6731 9.92746 56.6139 10.1498 56.6185C10.3856 56.6083 10.6196 56.6631 10.8262 56.777C10.9101 56.8279 10.9785 56.9008 11.0239 56.9877C11.0693 57.0746 11.0901 57.1723 11.084 57.2702V58.6285C11.0823 58.6633 11.0911 58.6978 11.1093 58.7275C11.1228 58.7419 11.1395 58.7528 11.1581 58.7594C11.1767 58.7659 11.1966 58.7678 11.2162 58.765C11.236 58.7649 11.2559 58.7637 11.2757 58.7616C11.2976 58.7595 11.3212 58.7562 11.3462 58.7518V59.0445C11.3 59.0586 11.2529 59.0696 11.2052 59.0776C11.1613 59.0826 11.1172 59.0849 11.073 59.0842C11.0149 59.0887 10.9567 59.0776 10.9044 59.0521C10.8521 59.0265 10.8076 58.9874 10.7755 58.9388C10.7381 58.8716 10.7148 58.7975 10.7072 58.7209C10.6131 58.8374 10.4942 58.9314 10.3592 58.9962C10.2043 59.0748 10.0327 59.1148 9.85903 59.1128C9.76087 59.1166 9.66293 59.101 9.57085 59.0668C9.47877 59.0326 9.39438 58.9806 9.32255 58.9136C9.25471 58.8498 9.20111 58.7724 9.16523 58.6865C9.12936 58.6006 9.11203 58.508 9.11438 58.415C9.10884 58.3203 9.12435 58.2256 9.15978 58.1377C9.19521 58.0498 9.24969 57.9708 9.31931 57.9064C9.47166 57.7793 9.65921 57.7017 9.85687 57.6841L10.4891 57.6048ZM9.65419 58.6769C9.73886 58.7433 9.84395 58.7783 9.95157 58.776C10.0924 58.7757 10.2312 58.7425 10.3569 58.6792C10.4591 58.6355 10.5454 58.5617 10.6045 58.4677C10.6636 58.3736 10.6925 58.2638 10.6874 58.1529V57.8337C10.6292 57.8686 10.5661 57.8945 10.5002 57.9108C10.4264 57.9308 10.3513 57.9455 10.2754 57.9548L10.0353 57.9856C9.92268 57.9955 9.81287 58.0261 9.71137 58.0758C9.65264 58.1078 9.60426 58.1559 9.57188 58.2144C9.5395 58.2729 9.52448 58.3394 9.52856 58.4061C9.52642 58.458 9.5367 58.5096 9.55855 58.5567C9.5804 58.6038 9.61319 58.645 9.65419 58.6769Z" fill="white"/>
<path id="Vector_4" d="M15.3708 56.6757H15.8092C15.7534 56.8269 15.6293 57.1718 15.437 57.7105C15.293 58.1155 15.1726 58.4458 15.0756 58.7011C14.9474 59.0818 14.7852 59.4502 14.591 59.8018C14.5328 59.8722 14.4581 59.9272 14.3735 59.9618C14.289 59.9964 14.1971 60.0095 14.1063 60.0001C14.0632 60.0008 14.0201 59.9985 13.9773 59.9934C13.9398 59.9874 13.9027 59.9793 13.8661 59.9691V59.6081C13.9153 59.6227 13.9653 59.6345 14.0159 59.6433C14.0429 59.6475 14.0701 59.6497 14.0974 59.65C14.1538 59.6541 14.2101 59.6415 14.2593 59.6137C14.2937 59.5896 14.3232 59.5594 14.3464 59.5245C14.3537 59.5128 14.3802 59.4525 14.4257 59.3439C14.4712 59.2354 14.5042 59.1547 14.5248 59.1018L13.6523 56.6757H14.1018L14.7341 58.5954L15.3708 56.6757Z" fill="white"/>
<path id="Vector_5" d="M23.518 56.035C23.7309 56.2246 23.8653 56.4868 23.8948 56.7703H23.4673C23.4282 56.5777 23.3263 56.4036 23.1776 56.275C23.0028 56.1435 22.7868 56.0787 22.5684 56.0922C22.4228 56.0871 22.2778 56.1146 22.1442 56.1727C22.0106 56.2308 21.8917 56.318 21.7962 56.4279C21.5774 56.7245 21.473 57.0899 21.5021 57.4572C21.4869 57.7851 21.5802 58.1089 21.7676 58.3785C21.8608 58.4974 21.9817 58.5918 22.1197 58.6534C22.2577 58.715 22.4087 58.742 22.5596 58.7319C22.7043 58.7391 22.8484 58.7085 22.9778 58.6433C23.1072 58.5781 23.2174 58.4804 23.2977 58.3598C23.3977 58.2029 23.4659 58.0279 23.4982 57.8447H23.9255C23.8968 58.164 23.7636 58.4649 23.5466 58.701C23.4132 58.8408 23.2514 58.9503 23.072 59.0221C22.8925 59.0939 22.6998 59.1263 22.5067 59.1172C22.1591 59.1274 21.8205 59.0055 21.5595 58.776C21.2566 58.4226 21.0799 57.9786 21.0572 57.5139C21.0345 57.0492 21.1669 56.5901 21.4338 56.2089C21.5708 56.0442 21.7442 55.9135 21.9404 55.8272C22.1365 55.7409 22.35 55.7013 22.5641 55.7114C22.9123 55.6897 23.255 55.806 23.518 56.035Z" fill="white"/>
<path id="Vector_6" d="M28.2957 56.9112C28.4069 57.0306 28.4922 57.1716 28.5464 57.3254C28.6006 57.4791 28.6225 57.6424 28.6107 57.8051C28.6241 58.141 28.5266 58.4721 28.3332 58.7473C28.2308 58.8747 28.0988 58.9752 27.9487 59.0401C27.7985 59.1049 27.6348 59.1322 27.4718 59.1194C27.3264 59.1258 27.1815 59.0996 27.0477 59.0426C26.9138 58.9857 26.7945 58.8994 26.6984 58.7903C26.4973 58.5409 26.3953 58.2262 26.4121 57.9063C26.3941 57.5646 26.5014 57.228 26.7139 56.9597C26.8136 56.8436 26.9384 56.7515 27.0788 56.6905C27.2192 56.6295 27.3717 56.6011 27.5246 56.6074C27.6669 56.6042 27.8085 56.6294 27.9409 56.6816C28.0733 56.7337 28.1939 56.8118 28.2957 56.9112ZM28.0501 58.4798C28.1495 58.2729 28.1997 58.0457 28.1965 57.8161C28.2038 57.6313 28.1676 57.4473 28.0908 57.2789C28.0378 57.1735 27.9547 57.0862 27.8519 57.0282C27.7491 56.9702 27.6314 56.944 27.5137 56.9531C27.4085 56.9458 27.3033 56.9679 27.21 57.0169C27.1166 57.0658 27.0387 57.1398 26.9849 57.2304C26.8698 57.4343 26.8127 57.6657 26.8196 57.8997C26.8114 58.1206 26.8689 58.3389 26.9849 58.5272C27.0426 58.6113 27.1214 58.6787 27.2134 58.7228C27.3054 58.7668 27.4074 58.7859 27.5092 58.7781C27.6189 58.7887 27.7293 58.7659 27.8258 58.7126C27.9223 58.6594 28.0005 58.5782 28.0501 58.4798V58.4798Z" fill="white"/>
<path id="Vector_7" d="M31.25 56.6756H31.6268V57.0103C31.7216 56.8862 31.8427 56.7848 31.9814 56.7131C32.1115 56.6517 32.2539 56.6209 32.3978 56.6228C32.5329 56.6075 32.6695 56.6325 32.7903 56.6949C32.9111 56.7572 33.0107 56.8539 33.0764 56.9729C33.1497 57.1459 33.1829 57.3333 33.1733 57.521V59.0335H32.7702V57.5474C32.7749 57.4282 32.7531 57.3094 32.7062 57.1997C32.6725 57.1283 32.6176 57.0689 32.5491 57.0296C32.4806 56.9902 32.4017 56.9728 32.323 56.9795C32.2448 56.9775 32.1669 56.9871 32.0916 57.0081C31.9791 57.043 31.8794 57.1104 31.8052 57.2018C31.7437 57.2709 31.6995 57.3535 31.6763 57.4429C31.6533 57.56 31.6433 57.6792 31.6466 57.7985V59.0335H31.25L31.25 56.6756Z" fill="white"/>
<path id="Vector_8" d="M35.9219 56.6756H36.2987V57.0103C36.3935 56.8862 36.5146 56.7848 36.6533 56.7131C36.7834 56.6517 36.9258 56.6209 37.0697 56.6228C37.2048 56.6075 37.3414 56.6325 37.4622 56.6949C37.583 56.7572 37.6825 56.8539 37.7482 56.9729C37.8216 57.1459 37.8548 57.3333 37.8452 57.521V59.0335H37.442V57.5474C37.4468 57.4282 37.425 57.3094 37.3781 57.1997C37.3443 57.1283 37.2895 57.0689 37.221 57.0296C37.1525 56.9902 37.0736 56.9728 36.9948 56.9795C36.9167 56.9775 36.8387 56.9871 36.7635 57.0081C36.6509 57.043 36.5513 57.1104 36.4771 57.2018C36.4156 57.2709 36.3714 57.3535 36.3482 57.4429C36.3252 57.56 36.3152 57.6792 36.3184 57.7985V59.0335H35.9219L35.9219 56.6756Z" fill="white"/>
<path id="Vector_9" d="M42.065 56.7405C42.2097 56.8084 42.3336 56.9137 42.4241 57.0454C42.506 57.1713 42.5601 57.3131 42.5827 57.4616C42.611 57.6332 42.6228 57.8072 42.6179 57.9811H40.8884C40.8852 58.1858 40.9444 58.3866 41.0581 58.5569C41.1157 58.6307 41.1908 58.6891 41.2765 58.727C41.3622 58.7648 41.4559 58.7808 41.5494 58.7737C41.642 58.7778 41.7343 58.7616 41.82 58.7262C41.9056 58.6908 41.9825 58.6371 42.0451 58.5689C42.1155 58.4899 42.1668 58.3957 42.1949 58.2938H42.5849C42.5693 58.3958 42.5345 58.4941 42.4824 58.5833C42.4317 58.68 42.3659 58.7681 42.2875 58.8441C42.1635 58.9635 42.0086 59.0459 41.8402 59.0819C41.7341 59.1066 41.6253 59.1184 41.5164 59.1171C41.3763 59.1194 41.2374 59.092 41.1087 59.0368C40.98 58.9816 40.8644 58.8998 40.7696 58.7968C40.5532 58.5497 40.4431 58.2273 40.4633 57.8996C40.4483 57.5646 40.5582 57.236 40.7717 56.9772C40.871 56.8616 40.995 56.7696 41.1345 56.7083C41.2741 56.6469 41.4257 56.6177 41.5781 56.6228C41.7474 56.6232 41.9142 56.6636 42.065 56.7405ZM42.2103 57.6663C42.2022 57.5228 42.1639 57.3825 42.098 57.2546C42.0436 57.1604 41.9636 57.0835 41.8673 57.0329C41.771 56.9822 41.6624 56.9599 41.5539 56.9684C41.4678 56.9667 41.3824 56.9834 41.3034 57.0174C41.2244 57.0514 41.1535 57.1019 41.0956 57.1655C40.9701 57.3022 40.9001 57.4808 40.8995 57.6663H42.2103Z" fill="white"/>
<path id="Vector_10" d="M46.8316 56.8012C46.9243 56.8863 46.9988 56.9892 47.0505 57.1039C47.1022 57.2185 47.13 57.3425 47.1323 57.4682H46.7467C46.7285 57.3347 46.6728 57.2092 46.5859 57.1061C46.5333 57.0542 46.4699 57.0144 46.4002 56.9895C46.3306 56.9646 46.2564 56.9552 46.1827 56.962C46.0648 56.9583 45.9488 56.9922 45.8515 57.0587C45.7541 57.1251 45.6803 57.2208 45.6408 57.3318C45.5651 57.5198 45.5291 57.7214 45.5351 57.924C45.528 58.133 45.5799 58.3397 45.6849 58.5206C45.7326 58.5871 45.7939 58.6428 45.8647 58.684C45.9355 58.7251 46.0142 58.7509 46.0956 58.7595C46.1771 58.7681 46.2594 58.7594 46.3373 58.734C46.4151 58.7086 46.4867 58.667 46.5473 58.6119C46.6513 58.4958 46.7204 58.3527 46.7467 58.1991H47.1323C47.1287 58.3255 47.0995 58.4499 47.0463 58.5646C46.9931 58.6794 46.9171 58.7821 46.8229 58.8666C46.7287 58.951 46.6183 59.0154 46.4984 59.0559C46.3785 59.0963 46.2517 59.112 46.1255 59.1018C45.9846 59.107 45.8445 59.0791 45.7163 59.0204C45.5881 58.9617 45.4755 58.8739 45.3874 58.7639C45.1988 58.5238 45.1012 58.2247 45.1121 57.9196C45.0906 57.5714 45.198 57.2274 45.4139 56.9532C45.508 56.8417 45.6259 56.7528 45.759 56.693C45.892 56.6332 46.0368 56.604 46.1827 56.6075C46.4147 56.5971 46.6434 56.6653 46.8316 56.8012Z" fill="white"/>
<path id="Vector_11" d="M49.7725 56.0175H50.1735V56.6757H50.5502V56.9993H50.1735V58.5382C50.1695 58.571 50.1754 58.6041 50.1903 58.6335C50.2052 58.6629 50.2285 58.6872 50.2572 58.7033C50.3062 58.7227 50.3589 58.7309 50.4114 58.7275C50.4305 58.7275 50.4511 58.7272 50.4731 58.7264C50.4951 58.7257 50.5208 58.7239 50.5502 58.7209V59.0335C50.5037 59.047 50.4562 59.0565 50.4081 59.0621C50.3551 59.0682 50.3017 59.0712 50.2484 59.0709C50.1788 59.0797 50.108 59.0714 50.0424 59.0467C49.9767 59.0219 49.9181 58.9815 49.8716 58.929C49.8013 58.8192 49.7667 58.6904 49.7725 58.5602V56.9993H49.4531V56.6756H49.7725L49.7725 56.0175Z" fill="white"/>
<path id="Vector_12" d="M54.5806 56.7405C54.7253 56.8084 54.8493 56.9137 54.9397 57.0454C55.0216 57.1713 55.0757 57.3131 55.0983 57.4616C55.1266 57.6332 55.1384 57.8072 55.1336 57.9811H53.4041C53.4009 58.1858 53.46 58.3866 53.5737 58.5569C53.6314 58.6307 53.7064 58.6891 53.7921 58.727C53.8778 58.7648 53.9716 58.7808 54.065 58.7737C54.1576 58.7778 54.2499 58.7616 54.3356 58.7262C54.4212 58.6908 54.4981 58.6371 54.5607 58.5689C54.6311 58.4899 54.6824 58.3957 54.7106 58.2938H55.1006C55.0849 58.3958 55.0501 58.4941 54.9981 58.5833C54.9473 58.68 54.8815 58.7681 54.8031 58.8441C54.6791 58.9635 54.5242 59.0459 54.3558 59.0819C54.2497 59.1066 54.141 59.1184 54.032 59.1171C53.892 59.1194 53.753 59.092 53.6243 59.0368C53.4956 58.9816 53.38 58.8998 53.2852 58.7968C53.0688 58.5497 52.9587 58.2273 52.9789 57.8996C52.964 57.5646 53.0739 57.236 53.2874 56.9772C53.3866 56.8616 53.5106 56.7696 53.6501 56.7083C53.7897 56.6469 53.9413 56.6177 54.0937 56.6228C54.263 56.6232 54.4298 56.6636 54.5806 56.7405ZM54.7259 57.6663C54.7178 57.5228 54.6795 57.3825 54.6136 57.2546C54.5592 57.1604 54.4793 57.0835 54.383 57.0329C54.2867 56.9822 54.178 56.9599 54.0695 56.9684C53.9835 56.9667 53.8981 56.9834 53.819 57.0174C53.74 57.0514 53.6691 57.1019 53.6112 57.1655C53.4857 57.3022 53.4158 57.4808 53.4151 57.6663H54.7259Z" fill="white"/>
<path id="Vector_13" d="M59.0883 56.7483C59.18 56.8123 59.2611 56.8903 59.3284 56.9795V55.7885H59.7095V59.0335H59.3527V58.7055C59.2736 58.838 59.1601 58.9468 59.0244 59.0203C58.8896 59.0868 58.7407 59.1201 58.5903 59.1172C58.459 59.1165 58.3294 59.0863 58.2113 59.029C58.0931 58.9717 57.9893 58.8886 57.9075 58.7859C57.7056 58.5377 57.6028 58.2236 57.6188 57.9042C57.6111 57.5864 57.7032 57.2742 57.8821 57.0114C57.9647 56.8895 58.0773 56.7907 58.209 56.7246C58.3407 56.6585 58.4872 56.6273 58.6344 56.6339C58.7935 56.6283 58.951 56.668 59.0883 56.7483ZM58.1983 58.5161C58.2533 58.601 58.3302 58.6696 58.4209 58.7145C58.5116 58.7594 58.6128 58.7791 58.7137 58.7715C58.8028 58.7722 58.8907 58.751 58.9697 58.7097C59.0487 58.6685 59.1163 58.6084 59.1665 58.5349C59.2971 58.3334 59.3593 58.0952 59.3439 57.8556C59.3626 57.6205 59.2978 57.3863 59.161 57.1941C59.107 57.1264 59.0382 57.0719 58.96 57.0347C58.8817 56.9976 58.796 56.9787 58.7094 56.9795C58.6161 56.977 58.5236 56.9965 58.4392 57.0362C58.3548 57.076 58.2809 57.135 58.2235 57.2085C58.0862 57.4051 58.0205 57.6429 58.0374 57.8821C58.0295 58.1044 58.0853 58.3244 58.1983 58.5161Z" fill="white"/>
<path id="Vector_14" d="M48.3394 7.48304C43.9762 13.3773 41.4983 20.452 41.2309 27.7787C39.9349 25.8027 38.1798 25.1806 35.9141 25.9019C36.6324 24.9208 37.3041 23.9223 37.9206 22.8878C38.5455 21.8402 39.1175 20.7621 39.6344 19.6573C40.662 17.4614 41.4658 15.1677 42.0339 12.811C42.3181 11.625 42.5429 10.4281 42.7086 9.22006C42.8735 8.02223 42.9724 6.81895 43.0223 5.61023C44.3168 7.58892 46.0803 8.20709 48.3394 7.48304Z" fill="white"/>
<path id="Vector_15" d="M33.9538 27.6271C34.0112 24.861 33.4909 22.1134 32.4261 19.5595C31.3613 17.0056 29.7754 14.7016 27.7695 12.7945C28.6418 12.9809 29.5502 12.8956 30.3724 12.55C31.1946 12.2045 31.891 11.6153 32.3677 10.8619C32.3677 10.9529 32.3681 11.021 32.3677 11.089C32.2934 15.6386 33.8063 20.0722 36.6466 23.6286C36.6744 23.6531 36.697 23.6828 36.7132 23.716C36.7293 23.7493 36.7387 23.7854 36.7407 23.8223C36.7427 23.8593 36.7373 23.8962 36.7248 23.931C36.7124 23.9658 36.6931 23.9978 36.6682 24.0251C35.9677 25.0962 35.1983 26.1207 34.3648 27.092C34.219 27.2551 34.0969 27.4394 33.9538 27.6271Z" fill="white"/>
<path id="Vector_16" d="M24.6732 27.3604C24.1836 26.6712 23.4972 26.1457 22.7039 25.8525C21.9105 25.5594 21.0471 25.5123 20.2266 25.7175C22.0545 23.7803 23.4592 21.4844 24.3516 18.9757C25.2439 16.4669 25.6043 13.8001 25.4099 11.1447C26.2506 12.2131 27.3631 12.9459 28.231 13.9284C28.3486 14.0615 28.5403 14.1903 28.5545 14.3351C28.5671 14.4631 28.3808 14.6113 28.281 14.7496C26.5726 17.0982 25.4242 19.8061 24.9238 22.6662C24.6704 24.0504 24.5858 25.4602 24.6718 26.8647C24.6823 27.0242 24.6732 27.185 24.6732 27.3604Z" fill="white"/>
<path id="Vector_17" d="M13.648 11.0956C14.371 11.0956 15.0779 11.3094 15.6795 11.71C16.2812 12.1106 16.7508 12.6801 17.0292 13.3469C17.3075 14.0136 17.3823 14.7478 17.2439 15.4569C17.1056 16.166 16.7604 16.8184 16.2518 17.3319C15.7432 17.8453 15.0939 18.1969 14.3857 18.3424C13.6775 18.4878 12.9421 18.4206 12.272 18.1493C11.602 17.8779 11.0273 17.4145 10.6202 16.8174C10.2132 16.2203 9.99213 15.5162 9.98478 14.7937C9.97758 14.3093 10.0671 13.8282 10.2482 13.3787C10.4293 12.9293 10.6982 12.5204 11.0394 12.1761C11.3805 11.8317 11.7869 11.5588 12.2348 11.3733C12.6827 11.1878 13.1632 11.0934 13.648 11.0956ZM15.6238 14.7562C15.6244 14.3664 15.5094 13.9853 15.2934 13.6608C15.0774 13.3363 14.7701 13.083 14.4102 12.9329C14.0503 12.7827 13.654 12.7424 13.2712 12.8171C12.8884 12.8918 12.5364 13.0781 12.2594 13.3525C11.9825 13.6269 11.7931 13.9771 11.7151 14.3589C11.6371 14.7408 11.6741 15.1371 11.8213 15.498C11.9685 15.8589 12.2193 16.1682 12.5422 16.3867C12.8651 16.6053 13.2455 16.7234 13.6355 16.7262C13.8965 16.7308 14.1557 16.6832 14.3979 16.586C14.6402 16.4889 14.8604 16.3442 15.0458 16.1606C15.2311 15.9769 15.3778 15.758 15.477 15.5168C15.5763 15.2756 15.6262 15.017 15.6238 14.7562Z" fill="white"/>
<path id="Vector_18" d="M37.5386 33.3774C36.8168 33.3728 36.1125 33.1548 35.5145 32.7508C34.9165 32.3468 34.4516 31.775 34.1783 31.1074C33.9051 30.4398 33.8357 29.7063 33.979 28.9993C34.1223 28.2924 34.4718 27.6436 34.9835 27.1349C35.4951 26.6261 36.1461 26.2801 36.8543 26.1405C37.5624 26.0009 38.2961 26.0739 38.9628 26.3503C39.6295 26.6267 40.1995 27.0941 40.6007 27.6937C41.002 28.2933 41.2166 28.9982 41.2176 29.7195C41.2146 30.6919 40.8255 31.6233 40.1357 32.3092C39.4458 32.9951 38.5117 33.3793 37.5386 33.3774ZM37.5274 31.6947C38.0487 31.703 38.5522 31.5049 38.928 31.1437C39.3038 30.7825 39.5215 30.2874 39.5335 29.7665C39.5455 29.2456 39.3509 28.7411 38.9922 28.3629C38.6335 27.9848 38.1397 27.7637 37.6185 27.7479C37.3574 27.7392 37.0972 27.7822 36.8529 27.8745C36.6086 27.9669 36.3851 28.1067 36.1952 28.286C36.0054 28.4652 35.853 28.6803 35.7469 28.9188C35.6407 29.1573 35.583 29.4144 35.577 29.6753C35.571 29.9363 35.6168 30.1958 35.7118 30.4389C35.8068 30.682 35.9491 30.9039 36.1305 31.0917C36.3119 31.2795 36.5287 31.4295 36.7685 31.533C37.0083 31.6365 37.2662 31.6915 37.5274 31.6947Z" fill="white"/>
<path id="Vector_19" d="M50.3604 3.659C50.361 4.3844 50.1461 5.09365 49.7428 5.69679C49.3394 6.29994 48.7659 6.76979 48.095 7.04676C47.4241 7.32373 46.6859 7.39533 45.9742 7.25249C45.2625 7.10965 44.6093 6.7588 44.0974 6.24444C43.5855 5.73008 43.238 5.07539 43.099 4.36341C42.9601 3.65143 43.0358 2.91424 43.3167 2.24534C43.5976 1.57644 44.071 1.00598 44.6768 0.606309C45.2826 0.206638 45.9935 -0.00423436 46.7194 0.000442347C47.6867 0.00662213 48.6123 0.394701 49.2943 1.08005C49.9764 1.76541 50.3596 2.69244 50.3604 3.659ZM44.7103 3.67982C44.7133 4.07169 44.8324 4.45389 45.0526 4.77816C45.2728 5.10243 45.5842 5.35421 45.9476 5.50171C46.3109 5.64921 46.7098 5.68582 47.0939 5.60691C47.4781 5.528 47.8302 5.3371 48.1058 5.05833C48.3815 4.77957 48.5682 4.42543 48.6426 4.04065C48.7169 3.65588 48.6755 3.25771 48.5235 2.89645C48.3715 2.53519 48.1158 2.22704 47.7887 2.0109C47.4616 1.79477 47.0777 1.68035 46.6855 1.6821C46.1593 1.68767 45.6565 1.90069 45.2866 2.27481C44.9166 2.64893 44.7095 3.15389 44.7103 3.67982H44.7103Z" fill="white"/>
<path id="Vector_20" d="M21.2721 33.3774C20.5486 33.3768 19.8416 33.1619 19.2404 32.7598C18.6392 32.3576 18.1709 31.7864 17.8945 31.1183C17.6182 30.4502 17.5463 29.7152 17.688 29.0063C17.8297 28.2974 18.1785 27.6464 18.6904 27.1356C19.2023 26.6247 19.8543 26.2771 20.564 26.1365C21.2736 25.996 22.009 26.0688 22.6772 26.3459C23.3454 26.623 23.9164 27.0918 24.3179 27.6932C24.7195 28.2945 24.9336 29.0013 24.9332 29.7242C24.9341 30.2047 24.84 30.6805 24.6562 31.1245C24.4725 31.5685 24.2028 31.9718 23.8626 32.3113C23.5224 32.6508 23.1184 32.9197 22.6738 33.1027C22.2292 33.2857 21.7529 33.379 21.2721 33.3774ZM21.2609 31.6951C21.6514 31.6942 22.033 31.5776 22.3572 31.3601C22.6815 31.1426 22.9339 30.8338 23.0825 30.4729C23.2311 30.112 23.2693 29.7152 23.1922 29.3326C23.1152 28.95 22.9263 28.5988 22.6494 28.3235C22.3726 28.0482 22.0203 27.8612 21.6371 27.7859C21.2539 27.7107 20.8569 27.7508 20.4965 27.901C20.136 28.0513 19.8283 28.305 19.6121 28.63C19.3959 28.9551 19.2811 29.3369 19.2821 29.7271C19.2824 29.9863 19.3338 30.2428 19.4335 30.4821C19.5331 30.7213 19.6791 30.9386 19.8629 31.1214C20.0467 31.3042 20.2648 31.449 20.5047 31.5474C20.7446 31.6459 21.0016 31.696 21.2609 31.6951V31.6951Z" fill="white"/>
<path id="Vector_21" d="M32.4652 8.77213C32.4594 9.25822 32.3576 9.73839 32.1657 10.1851C31.9739 10.6319 31.6957 11.0364 31.3472 11.3756C30.9987 11.7147 30.5866 11.9818 30.1346 12.1616C29.6826 12.3414 29.1996 12.4304 28.7131 12.4233C27.9948 12.4042 27.298 12.1738 26.71 11.761C26.122 11.3482 25.6688 10.7714 25.4072 10.1026C25.1455 9.43382 25.0869 8.70279 25.2388 8.00093C25.3907 7.29908 25.7463 6.65754 26.2611 6.15656C26.7759 5.65557 27.4271 5.31738 28.1333 5.18427C28.8394 5.05115 29.5692 5.12903 30.2313 5.40816C30.8934 5.68729 31.4584 6.15528 31.8558 6.75361C32.2531 7.35194 32.4651 8.05404 32.4652 8.77213ZM30.7798 8.78335C30.7802 8.39252 30.6644 8.01037 30.4472 7.68536C30.23 7.36036 29.9211 7.10713 29.5596 6.95779C29.1982 6.80845 28.8005 6.76973 28.417 6.84654C28.0335 6.92334 27.6815 7.11222 27.4056 7.3892C27.1296 7.66619 26.9422 8.01883 26.8671 8.40238C26.792 8.78594 26.8326 9.18314 26.9837 9.54363C27.1348 9.90412 27.3896 10.2117 27.7158 10.4272C28.0421 10.6428 28.425 10.7567 28.8161 10.7546C29.075 10.7554 29.3315 10.705 29.5707 10.6061C29.8099 10.5072 30.0271 10.3619 30.2098 10.1786C30.3924 9.99527 30.5368 9.77755 30.6347 9.53805C30.7325 9.29855 30.7818 9.04203 30.7798 8.78335Z" fill="white"/>
<path id="Vector_22" d="M17.8748 27.3516C17.8914 25.6968 17.5071 24.0624 16.7549 22.5881C16.0026 21.1137 14.9047 19.843 13.5547 18.8843C14.2393 18.8981 14.9168 18.7434 15.5274 18.4338C16.138 18.1241 16.663 17.6691 17.0561 17.1089C17.0826 17.529 17.077 17.9242 17.1199 18.3171C17.3589 20.7177 18.4575 22.9514 20.2135 24.6069C20.3825 24.77 20.3825 24.8566 20.2259 25.0195C19.7487 25.5611 19.2259 26.0608 18.6633 26.5131C18.3603 26.752 18.0946 27.0346 17.8748 27.3516Z" fill="white"/>
<path id="Vector_23" d="M48.3394 7.48304C43.9762 13.3773 41.4983 20.452 41.2309 27.7787C39.9349 25.8027 38.1798 25.1806 35.9141 25.9019C36.6324 24.9208 37.3041 23.9223 37.9206 22.8878C38.5455 21.8402 39.1175 20.7621 39.6344 19.6573C40.662 17.4614 41.4658 15.1677 42.0339 12.811C42.3181 11.625 42.5429 10.4281 42.7086 9.22006C42.8735 8.02223 42.9724 6.81895 43.0223 5.61023C44.3168 7.58892 46.0803 8.20709 48.3394 7.48304Z" fill="white"/>
<path id="Vector_24" d="M33.9538 27.6271C34.0112 24.861 33.4909 22.1134 32.4261 19.5595C31.3613 17.0056 29.7754 14.7016 27.7695 12.7945C28.6418 12.9809 29.5502 12.8956 30.3724 12.55C31.1946 12.2045 31.891 11.6153 32.3677 10.8619C32.3677 10.9529 32.3681 11.021 32.3677 11.089C32.2934 15.6386 33.8063 20.0722 36.6466 23.6286C36.6744 23.6531 36.697 23.6828 36.7132 23.716C36.7293 23.7493 36.7387 23.7854 36.7407 23.8223C36.7427 23.8593 36.7373 23.8962 36.7248 23.931C36.7124 23.9658 36.6931 23.9978 36.6682 24.0251C35.9677 25.0962 35.1983 26.1207 34.3648 27.092C34.219 27.2551 34.0969 27.4394 33.9538 27.6271Z" fill="white"/>
<path id="Vector_25" d="M24.6732 27.3604C24.1836 26.6712 23.4972 26.1457 22.7039 25.8525C21.9105 25.5594 21.0471 25.5123 20.2266 25.7175C22.0545 23.7803 23.4592 21.4844 24.3516 18.9757C25.2439 16.4669 25.6043 13.8001 25.4099 11.1447C26.2506 12.2131 27.3631 12.9459 28.231 13.9284C28.3486 14.0615 28.5403 14.1903 28.5545 14.3351C28.5671 14.4631 28.3808 14.6113 28.281 14.7496C26.5726 17.0982 25.4242 19.8061 24.9238 22.6662C24.6704 24.0504 24.5858 25.4602 24.6718 26.8647C24.6823 27.0242 24.6732 27.185 24.6732 27.3604Z" fill="white"/>
<path id="Vector_26" d="M13.648 11.0956C14.371 11.0956 15.0779 11.3094 15.6795 11.71C16.2812 12.1106 16.7508 12.6801 17.0292 13.3469C17.3075 14.0136 17.3823 14.7478 17.2439 15.4569C17.1056 16.166 16.7604 16.8184 16.2518 17.3319C15.7432 17.8453 15.0939 18.1969 14.3857 18.3424C13.6775 18.4878 12.9421 18.4206 12.272 18.1493C11.602 17.8779 11.0273 17.4145 10.6202 16.8174C10.2132 16.2203 9.99213 15.5162 9.98478 14.7937C9.97758 14.3093 10.0671 13.8282 10.2482 13.3787C10.4293 12.9293 10.6982 12.5204 11.0394 12.1761C11.3805 11.8317 11.7869 11.5588 12.2348 11.3733C12.6827 11.1878 13.1632 11.0934 13.648 11.0956ZM15.6238 14.7562C15.6244 14.3664 15.5094 13.9853 15.2934 13.6608C15.0774 13.3363 14.7701 13.083 14.4102 12.9329C14.0503 12.7827 13.654 12.7424 13.2712 12.8171C12.8884 12.8918 12.5364 13.0781 12.2594 13.3525C11.9825 13.6269 11.7931 13.9771 11.7151 14.3589C11.6371 14.7408 11.6741 15.1371 11.8213 15.498C11.9685 15.8589 12.2193 16.1682 12.5422 16.3867C12.8651 16.6053 13.2455 16.7234 13.6355 16.7262C13.8965 16.7308 14.1557 16.6832 14.3979 16.586C14.6402 16.4889 14.8604 16.3442 15.0458 16.1606C15.2311 15.9769 15.3778 15.758 15.477 15.5168C15.5763 15.2756 15.6262 15.017 15.6238 14.7562Z" fill="white"/>
<path id="Vector_27" d="M37.5386 33.3774C36.8168 33.3728 36.1125 33.1548 35.5145 32.7508C34.9165 32.3468 34.4516 31.775 34.1783 31.1074C33.9051 30.4398 33.8357 29.7063 33.979 28.9993C34.1223 28.2924 34.4718 27.6436 34.9835 27.1349C35.4951 26.6261 36.1461 26.2801 36.8543 26.1405C37.5624 26.0009 38.2961 26.0739 38.9628 26.3503C39.6295 26.6267 40.1995 27.0941 40.6007 27.6937C41.002 28.2933 41.2166 28.9982 41.2176 29.7195C41.2146 30.6919 40.8255 31.6233 40.1357 32.3092C39.4458 32.9951 38.5117 33.3793 37.5386 33.3774ZM37.5274 31.6947C38.0487 31.703 38.5522 31.5049 38.928 31.1437C39.3038 30.7825 39.5215 30.2874 39.5335 29.7665C39.5455 29.2456 39.3509 28.7411 38.9922 28.3629C38.6335 27.9848 38.1397 27.7637 37.6185 27.7479C37.3574 27.7392 37.0972 27.7822 36.8529 27.8745C36.6086 27.9669 36.3851 28.1067 36.1952 28.286C36.0054 28.4652 35.853 28.6803 35.7469 28.9188C35.6407 29.1573 35.583 29.4144 35.577 29.6753C35.571 29.9363 35.6168 30.1958 35.7118 30.4389C35.8068 30.682 35.9491 30.9039 36.1305 31.0917C36.3119 31.2795 36.5287 31.4295 36.7685 31.533C37.0083 31.6365 37.2662 31.6915 37.5274 31.6947Z" fill="white"/>
<path id="Vector_28" d="M50.3604 3.659C50.361 4.3844 50.1461 5.09365 49.7428 5.69679C49.3394 6.29994 48.7659 6.76979 48.095 7.04676C47.4241 7.32373 46.6859 7.39533 45.9742 7.25249C45.2625 7.10965 44.6093 6.7588 44.0974 6.24444C43.5855 5.73008 43.238 5.07539 43.099 4.36341C42.9601 3.65143 43.0358 2.91424 43.3167 2.24534C43.5976 1.57644 44.071 1.00598 44.6768 0.606309C45.2826 0.206638 45.9935 -0.00423436 46.7194 0.000442347C47.6867 0.00662213 48.6123 0.394701 49.2943 1.08005C49.9764 1.76541 50.3596 2.69244 50.3604 3.659ZM44.7103 3.67982C44.7133 4.07169 44.8324 4.45389 45.0526 4.77816C45.2728 5.10243 45.5842 5.35421 45.9476 5.50171C46.3109 5.64921 46.7098 5.68582 47.0939 5.60691C47.4781 5.528 47.8302 5.3371 48.1058 5.05833C48.3815 4.77957 48.5682 4.42543 48.6426 4.04065C48.7169 3.65588 48.6755 3.25771 48.5235 2.89645C48.3715 2.53519 48.1158 2.22704 47.7887 2.0109C47.4616 1.79477 47.0777 1.68035 46.6855 1.6821C46.1593 1.68767 45.6565 1.90069 45.2866 2.27481C44.9166 2.64893 44.7095 3.15389 44.7103 3.67982H44.7103Z" fill="white"/>
<path id="Vector_29" d="M21.2721 33.3774C20.5486 33.3768 19.8416 33.1619 19.2404 32.7598C18.6392 32.3576 18.1709 31.7864 17.8945 31.1183C17.6182 30.4502 17.5463 29.7152 17.688 29.0063C17.8297 28.2974 18.1785 27.6464 18.6904 27.1356C19.2023 26.6247 19.8543 26.2771 20.564 26.1365C21.2736 25.996 22.009 26.0688 22.6772 26.3459C23.3454 26.623 23.9164 27.0918 24.3179 27.6932C24.7195 28.2945 24.9336 29.0013 24.9332 29.7242C24.9341 30.2047 24.84 30.6805 24.6562 31.1245C24.4725 31.5685 24.2028 31.9718 23.8626 32.3113C23.5224 32.6508 23.1184 32.9197 22.6738 33.1027C22.2292 33.2857 21.7529 33.379 21.2721 33.3774ZM21.2609 31.6951C21.6514 31.6942 22.033 31.5776 22.3572 31.3601C22.6815 31.1426 22.9339 30.8338 23.0825 30.4729C23.2311 30.112 23.2693 29.7152 23.1922 29.3326C23.1152 28.95 22.9263 28.5988 22.6494 28.3235C22.3726 28.0482 22.0203 27.8612 21.6371 27.7859C21.2539 27.7107 20.8569 27.7508 20.4965 27.901C20.136 28.0513 19.8283 28.305 19.6121 28.63C19.3959 28.9551 19.2811 29.3369 19.2821 29.7271C19.2824 29.9863 19.3338 30.2428 19.4335 30.4821C19.5331 30.7213 19.6791 30.9386 19.8629 31.1214C20.0467 31.3042 20.2648 31.449 20.5047 31.5474C20.7446 31.6459 21.0016 31.696 21.2609 31.6951V31.6951Z" fill="white"/>
<path id="Vector_30" d="M32.4652 8.77213C32.4594 9.25822 32.3576 9.73839 32.1657 10.1851C31.9739 10.6319 31.6957 11.0364 31.3472 11.3756C30.9987 11.7147 30.5866 11.9818 30.1346 12.1616C29.6826 12.3414 29.1996 12.4304 28.7131 12.4233C27.9948 12.4042 27.298 12.1738 26.71 11.761C26.122 11.3482 25.6688 10.7714 25.4072 10.1026C25.1455 9.43382 25.0869 8.70279 25.2388 8.00093C25.3907 7.29908 25.7463 6.65754 26.2611 6.15656C26.7759 5.65557 27.4271 5.31738 28.1333 5.18427C28.8394 5.05115 29.5692 5.12903 30.2313 5.40816C30.8934 5.68729 31.4584 6.15528 31.8558 6.75361C32.2531 7.35194 32.4651 8.05404 32.4652 8.77213ZM30.7798 8.78335C30.7802 8.39252 30.6644 8.01037 30.4472 7.68536C30.23 7.36036 29.9211 7.10713 29.5596 6.95779C29.1982 6.80845 28.8005 6.76973 28.417 6.84654C28.0335 6.92334 27.6815 7.11222 27.4056 7.3892C27.1296 7.66619 26.9422 8.01883 26.8671 8.40238C26.792 8.78594 26.8326 9.18314 26.9837 9.54363C27.1348 9.90412 27.3896 10.2117 27.7158 10.4272C28.0421 10.6428 28.425 10.7567 28.8161 10.7546C29.075 10.7554 29.3315 10.705 29.5707 10.6061C29.8099 10.5072 30.0271 10.3619 30.2098 10.1786C30.3924 9.99527 30.5368 9.77755 30.6347 9.53805C30.7325 9.29855 30.7818 9.04203 30.7798 8.78335Z" fill="white"/>
<path id="Vector_31" d="M17.8748 27.3516C17.8914 25.6968 17.5071 24.0624 16.7549 22.5881C16.0026 21.1137 14.9047 19.843 13.5547 18.8843C14.2393 18.8981 14.9168 18.7434 15.5274 18.4338C16.138 18.1241 16.663 17.6691 17.0561 17.1089C17.0826 17.529 17.077 17.9242 17.1199 18.3171C17.3589 20.7177 18.4575 22.9514 20.2135 24.6069C20.3825 24.77 20.3825 24.8566 20.2259 25.0195C19.7487 25.5611 19.2259 26.0608 18.6633 26.5131C18.3603 26.752 18.0946 27.0346 17.8748 27.3516Z" fill="white"/>
<path id="Vector_32" d="M7.9417 48.9916L6.32576 42.6704L4.72359 48.9916H2.638L0 39.7859H2.19602L3.81195 46.4383L5.56608 39.7859H7.09919L8.83948 46.4383L10.4416 39.7859H12.6514L10.0273 48.9916H7.9417Z" fill="white"/>
<path id="Vector_33" d="M13.5781 48.9916V39.7859H20.0972V41.4696H15.5394V43.471H20.0006V45.1547H15.5394V47.294H20.0972V48.9916L13.5781 48.9916Z" fill="white"/>
<path id="Vector_34" d="M21.1875 44.3956C21.1875 41.5663 23.3283 39.634 26.0216 39.634C26.821 39.6021 27.6132 39.7964 28.3071 40.1943C29.001 40.5923 29.5684 41.1778 29.9442 41.8837L28.2591 42.7118C28.0435 42.3062 27.7212 41.9671 27.3269 41.7311C26.9326 41.4952 26.4812 41.3713 26.0216 41.373C24.4194 41.373 23.204 42.6565 23.204 44.3956C23.204 46.1346 24.4194 47.4181 26.0216 47.4181C26.4818 47.4227 26.9343 47.3001 27.3291 47.0638C27.724 46.8276 28.0458 46.4869 28.2591 46.0794L29.9442 46.8937C29.568 47.6002 29.0009 48.1869 28.3074 48.5871C27.614 48.9872 26.8219 49.1848 26.0216 49.1571C23.3283 49.1572 21.1875 47.2249 21.1875 44.3956Z" fill="white"/>
<path id="Vector_35" d="M35.4863 39.6341C38.2763 39.6341 40.3066 41.6216 40.3066 44.3957C40.3066 47.1699 38.2763 49.1573 35.4863 49.1573C34.8571 49.1627 34.233 49.0436 33.6501 48.8068C33.0672 48.5699 32.537 48.2201 32.0901 47.7774C31.6432 47.3347 31.2885 46.8079 31.0464 46.2275C30.8043 45.6471 30.6797 45.0245 30.6797 44.3957C30.6797 43.7669 30.8043 43.1443 31.0464 42.5639C31.2885 41.9835 31.6432 41.4567 32.0901 41.014C32.537 40.5713 33.0672 40.2214 33.6501 39.9846C34.233 39.7477 34.8571 39.6286 35.4863 39.6341ZM35.4863 41.3731C33.7875 41.3731 32.6964 42.6705 32.6964 44.3957C32.6964 46.1071 33.7875 47.4182 35.4863 47.4182C37.1852 47.4182 38.2901 46.1071 38.2901 44.3957C38.2901 42.6705 37.1852 41.3731 35.4863 41.3731Z" fill="white"/>
<path id="Vector_36" d="M48.0409 48.9916L43.6488 42.8085V48.9916H41.6875V39.7859H43.704L47.9718 45.7482V39.7859H49.9331V48.9916H48.0409Z" fill="white"/>
<path id="Vector_37" d="M58.1073 48.9916L53.7152 42.8085V48.9916H51.7539V39.7859H53.7704L58.0382 45.7482V39.7859H59.9995V48.9916H58.1073Z" fill="white"/>
<path id="Vector_38" d="M7.9417 48.9916L6.32576 42.6704L4.72359 48.9916H2.638L0 39.7859H2.19602L3.81195 46.4383L5.56608 39.7859H7.09919L8.83948 46.4383L10.4416 39.7859H12.6514L10.0273 48.9916H7.9417Z" fill="white"/>
<path id="Vector_39" d="M13.5781 48.9916V39.7859H20.0972V41.4696H15.5394V43.471H20.0006V45.1547H15.5394V47.294H20.0972V48.9916L13.5781 48.9916Z" fill="white"/>
<path id="Vector_40" d="M21.1875 44.3956C21.1875 41.5663 23.3283 39.634 26.0216 39.634C26.821 39.6021 27.6132 39.7964 28.3071 40.1943C29.001 40.5923 29.5684 41.1778 29.9442 41.8837L28.2591 42.7118C28.0435 42.3062 27.7212 41.9671 27.3269 41.7311C26.9326 41.4952 26.4812 41.3713 26.0216 41.373C24.4194 41.373 23.204 42.6565 23.204 44.3956C23.204 46.1346 24.4194 47.4181 26.0216 47.4181C26.4818 47.4227 26.9343 47.3001 27.3291 47.0638C27.724 46.8276 28.0458 46.4869 28.2591 46.0794L29.9442 46.8937C29.568 47.6002 29.0009 48.1869 28.3074 48.5871C27.614 48.9872 26.8219 49.1848 26.0216 49.1571C23.3283 49.1572 21.1875 47.2249 21.1875 44.3956Z" fill="white"/>
<path id="Vector_41" d="M35.4863 39.6341C38.2763 39.6341 40.3066 41.6216 40.3066 44.3957C40.3066 47.1699 38.2763 49.1573 35.4863 49.1573C34.8571 49.1627 34.233 49.0436 33.6501 48.8068C33.0672 48.5699 32.537 48.2201 32.0901 47.7774C31.6432 47.3347 31.2885 46.8079 31.0464 46.2275C30.8043 45.6471 30.6797 45.0245 30.6797 44.3957C30.6797 43.7669 30.8043 43.1443 31.0464 42.5639C31.2885 41.9835 31.6432 41.4567 32.0901 41.014C32.537 40.5713 33.0672 40.2214 33.6501 39.9846C34.233 39.7477 34.8571 39.6286 35.4863 39.6341ZM35.4863 41.3731C33.7875 41.3731 32.6964 42.6705 32.6964 44.3957C32.6964 46.1071 33.7875 47.4182 35.4863 47.4182C37.1852 47.4182 38.2901 46.1071 38.2901 44.3957C38.2901 42.6705 37.1852 41.3731 35.4863 41.3731Z" fill="white"/>
<path id="Vector_42" d="M48.0409 48.9916L43.6488 42.8085V48.9916H41.6875V39.7859H43.704L47.9718 45.7482V39.7859H49.9331V48.9916H48.0409Z" fill="white"/>
<path id="Vector_43" d="M58.1073 48.9916L53.7152 42.8085V48.9916H51.7539V39.7859H53.7704L58.0382 45.7482V39.7859H59.9995V48.9916H58.1073Z" fill="white"/>
</g>
</g>
<defs>
<clipPath id="clip0_93_952">
<rect width="60" height="60" fill="white"/>
</clipPath>
</defs>
</svg>
