<svg width="80" height="80" viewBox="0 0 80 80" fill="none" xmlns="http://www.w3.org/2000/svg">
<g id="Layer_1" clip-path="url(#clip0_93_1135)">
<path id="Vector" d="M1.29129 77.3201C1.30483 77.5648 1.36268 77.7628 1.46483 77.9154C1.65929 78.2007 2.00022 78.3446 2.49006 78.3446C2.70914 78.3446 2.90852 78.3126 3.08945 78.2511C3.43776 78.1294 3.61252 77.9129 3.61252 77.5993C3.61252 77.3644 3.53868 77.1971 3.39222 77.0975C3.24329 76.9991 3.01068 76.9142 2.69314 76.8417L2.10852 76.7101C1.72699 76.624 1.45622 76.5293 1.29745 76.4247C1.02299 76.2452 0.886371 75.9758 0.886371 75.6179C0.886371 75.2305 1.02052 74.912 1.28883 74.6636C1.55714 74.4151 1.93745 74.2909 2.42852 74.2909C2.88145 74.2909 3.26545 74.4004 3.58176 74.618C3.89806 74.8357 4.0556 75.185 4.0556 75.6647H3.50668C3.47714 75.4334 3.41437 75.2564 3.31837 75.1334C3.13991 74.9083 2.83714 74.7964 2.41129 74.7964C2.06668 74.7964 1.81929 74.8689 1.66791 75.0141C1.51652 75.1592 1.44145 75.3277 1.44145 75.5195C1.44145 75.7311 1.53006 75.886 1.70606 75.9832C1.82176 76.0459 2.08268 76.1246 2.49006 76.2181L3.0956 76.3559C3.38729 76.4223 3.61252 76.5133 3.77129 76.6289C4.04576 76.8306 4.18237 77.1233 4.18237 77.507C4.18237 77.9842 4.00883 78.3261 3.66052 78.5315C3.31345 78.7369 2.90852 78.8402 2.44945 78.8402C1.91283 78.8402 1.49314 78.7037 1.18914 78.4294C0.88514 78.1576 0.736217 77.7887 0.742371 77.3226H1.29129V77.3201Z" fill="url(#paint0_linear_93_1135)"/>
<path id="Vector_2" d="M7.84772 74.6906H8.38188V75.5687H8.88403V76.0004H8.38188V78.0519C8.38188 78.1613 8.4188 78.2351 8.49387 78.272C8.53449 78.2942 8.60341 78.304 8.69941 78.304C8.72526 78.304 8.75234 78.304 8.78188 78.3028C8.81141 78.3028 8.84588 78.2991 8.88403 78.2954V78.7123C8.82372 78.7295 8.75972 78.7431 8.69449 78.7504C8.62926 78.7578 8.55788 78.7627 8.48157 78.7627C8.23541 78.7627 8.06803 78.7 7.97941 78.5733C7.8908 78.4467 7.84772 78.2831 7.84772 78.0814V76.0004H7.42188V75.5687H7.84772V74.6906Z" fill="url(#paint1_linear_93_1135)"/>
<path id="Vector_3" d="M13.9823 76.806C14.1041 76.79 14.1854 76.7396 14.226 76.6535C14.2494 76.6067 14.2617 76.5391 14.2617 76.4505C14.2617 76.271 14.1977 76.1394 14.0697 76.0582C13.9417 75.977 13.7583 75.9364 13.5183 75.9364C13.2426 75.9364 13.0469 76.0102 12.9312 76.1591C12.866 76.2415 12.8241 76.3632 12.8044 76.5256H12.3109C12.3207 76.1381 12.4463 75.8688 12.6887 75.7163C12.93 75.565 13.2106 75.4888 13.5306 75.4888C13.9011 75.4888 14.2014 75.5589 14.4327 75.7003C14.6617 75.8417 14.7761 76.0607 14.7761 76.3583V78.1699C14.7761 78.2253 14.7872 78.2683 14.8094 78.3015C14.8315 78.3347 14.8795 78.3519 14.9521 78.3519C14.9755 78.3519 15.0026 78.3507 15.0309 78.347C15.0604 78.3446 15.0912 78.3396 15.1244 78.3335V78.7234C15.042 78.7467 14.9792 78.7615 14.9361 78.7676C14.8931 78.7738 14.834 78.7762 14.7601 78.7762C14.578 78.7762 14.4463 78.7111 14.3638 78.5819C14.3207 78.513 14.29 78.4171 14.2727 78.2917C14.1657 78.4331 14.0106 78.5549 13.8087 78.6582C13.6069 78.7615 13.3841 78.8131 13.1417 78.8131C12.85 78.8131 12.6112 78.7246 12.4266 78.5475C12.242 78.3704 12.1484 78.149 12.1484 77.8821C12.1484 77.5906 12.2395 77.3643 12.4217 77.2045C12.6038 77.0446 12.8426 76.945 13.138 76.9081L13.9811 76.8023L13.9823 76.806ZM12.8684 78.2351C12.9804 78.3236 13.1121 78.3667 13.2647 78.3667C13.4506 78.3667 13.6315 78.3236 13.8051 78.2376C14.0992 78.0949 14.2457 77.8612 14.2457 77.5365V77.111C14.1804 77.1516 14.098 77.186 13.9958 77.2131C13.8937 77.2401 13.794 77.2598 13.6955 77.2721L13.3755 77.3127C13.1835 77.3385 13.0395 77.3779 12.9435 77.4332C12.7811 77.5255 12.6998 77.6718 12.6998 77.8735C12.6998 78.026 12.7552 78.1465 12.8672 78.2351H12.8684Z" fill="url(#paint2_linear_93_1135)"/>
<path id="Vector_4" d="M20.496 75.5675H21.0807C21.0068 75.7692 20.8407 76.2292 20.5847 76.9475C20.3927 77.4874 20.2327 77.9277 20.1034 78.2684C19.7982 79.0702 19.5828 79.5597 19.4573 79.7356C19.3317 79.9115 19.1164 80 18.8111 80C18.7373 80 18.6794 79.9976 18.6388 79.9914C18.5982 79.9853 18.549 79.9742 18.4899 79.9594V79.4786C18.5822 79.5044 18.6487 79.5204 18.6893 79.5253C18.7299 79.5314 18.7668 79.5339 18.7976 79.5339C18.8948 79.5339 18.9674 79.5179 19.013 79.4859C19.0585 79.454 19.0979 79.4146 19.1287 79.3666C19.1385 79.3506 19.1742 79.2707 19.2345 79.1256C19.2948 78.9805 19.3391 78.8735 19.3662 78.8033L18.2031 75.5688H18.8025L19.6456 78.1281L20.4948 75.5688L20.496 75.5675Z" fill="url(#paint3_linear_93_1135)"/>
<path id="Vector_5" d="M31.3565 74.714C31.658 75.0018 31.8254 75.3289 31.8586 75.6942H31.2888C31.2248 75.4163 31.0955 75.1961 30.9023 75.0338C30.7091 74.8714 30.4383 74.7902 30.09 74.7902C29.6654 74.7902 29.322 74.9391 29.0599 75.2379C28.7989 75.5368 28.6672 75.9943 28.6672 76.6105C28.6672 77.116 28.7854 77.5243 29.0217 77.8391C29.258 78.1527 29.61 78.3102 30.0777 78.3102C30.5085 78.3102 30.8371 78.1441 31.0623 77.8145C31.1817 77.6399 31.2715 77.4111 31.3294 77.1283H31.8992C31.8488 77.5821 31.6802 77.9633 31.3934 78.2696C31.0512 78.6398 30.5885 78.8243 30.0063 78.8243C29.5054 78.8243 29.0845 78.673 28.7435 78.3692C28.2955 77.9683 28.0703 77.3484 28.0703 76.5108C28.0703 75.875 28.2389 75.3535 28.5762 74.9464C28.9405 74.5037 29.4426 74.2835 30.0826 74.2835C30.6291 74.2835 31.0525 74.4274 31.354 74.7152L31.3565 74.714Z" fill="url(#paint4_linear_93_1135)"/>
<path id="Vector_6" d="M37.7229 75.8823C38.0036 76.1529 38.1426 76.5501 38.1426 77.0741C38.1426 77.598 38.0196 78.0002 37.7722 78.331C37.526 78.6619 37.142 78.8267 36.6239 78.8267C36.1906 78.8267 35.8472 78.6803 35.5925 78.3876C35.3377 78.0949 35.2109 77.7025 35.2109 77.2094C35.2109 76.6805 35.3451 76.2599 35.6134 75.9475C35.8817 75.6339 36.2423 75.4777 36.694 75.4777C37.0989 75.4777 37.4423 75.613 37.7217 75.8823H37.7229ZM37.3956 77.9743C37.526 77.7087 37.5912 77.4147 37.5912 77.0888C37.5912 76.7949 37.5445 76.5563 37.4497 76.373C37.3008 76.0828 37.0448 75.9389 36.6805 75.9389C36.3568 75.9389 36.1217 76.0619 35.9752 76.3091C35.8288 76.5551 35.7549 76.8527 35.7549 77.202C35.7549 77.5513 35.8288 77.8157 35.9752 78.0383C36.1217 78.2609 36.3556 78.3728 36.6743 78.3728C37.0251 78.3728 37.2651 78.24 37.3956 77.9756V77.9743Z" fill="url(#paint5_linear_93_1135)"/>
<path id="Vector_7" d="M41.6653 75.5675H42.1674V76.014C42.3164 75.8295 42.4739 75.6979 42.6401 75.6179C42.8062 75.538 42.9921 75.4974 43.1951 75.4974C43.6419 75.4974 43.9434 75.6536 44.0998 75.9648C44.1859 76.1345 44.229 76.378 44.229 76.6953V78.7123H43.6911V76.731C43.6911 76.5391 43.6628 76.3842 43.6062 76.2673C43.5127 76.0718 43.3416 75.9734 43.0954 75.9734C42.9699 75.9734 42.8678 75.9857 42.7865 76.0115C42.6413 76.0545 42.5145 76.1406 42.405 76.2698C42.3164 76.3731 42.2598 76.4801 42.2327 76.5908C42.2056 76.7015 42.1933 76.8589 42.1933 77.0643V78.7111H41.6641V75.5675H41.6653Z" fill="url(#paint6_linear_93_1135)"/>
<path id="Vector_8" d="M47.8997 75.5675H48.4018V76.014C48.5507 75.8295 48.7083 75.6979 48.8744 75.6179C49.0406 75.538 49.2264 75.4974 49.4295 75.4974C49.8763 75.4974 50.1778 75.6536 50.3341 75.9648C50.4203 76.1345 50.4634 76.378 50.4634 76.6953V78.7123H49.9255V76.731C49.9255 76.5391 49.8972 76.3842 49.8406 76.2673C49.7471 76.0718 49.576 75.9734 49.3298 75.9734C49.2043 75.9734 49.1021 75.9857 49.0209 76.0115C48.8757 76.0545 48.7489 76.1406 48.6394 76.2698C48.5507 76.3731 48.4941 76.4801 48.4671 76.5908C48.44 76.7015 48.4277 76.8589 48.4277 77.0643V78.7111H47.8984V75.5675H47.8997Z" fill="url(#paint7_linear_93_1135)"/>
<path id="Vector_9" d="M56.091 75.6549C56.3002 75.7594 56.4602 75.8947 56.5697 76.0619C56.6756 76.2206 56.7457 76.4051 56.7814 76.6166C56.8122 76.7617 56.8282 76.993 56.8282 77.309H54.5217C54.5316 77.6276 54.6067 77.8834 54.7482 78.0765C54.8897 78.2696 55.1076 78.3655 55.403 78.3655C55.6787 78.3655 55.899 78.2745 56.0639 78.0925C56.1574 77.9867 56.2239 77.8649 56.2633 77.726H56.7827C56.7691 77.8416 56.7236 77.9707 56.646 78.1122C56.5685 78.2536 56.4824 78.3704 56.3864 78.4602C56.2264 78.6164 56.027 78.7222 55.7894 78.7775C55.6627 78.8083 55.5187 78.8242 55.3574 78.8242C54.966 78.8242 54.6337 78.6816 54.3617 78.3975C54.0897 78.1134 53.9531 77.7137 53.9531 77.2008C53.9531 76.688 54.0897 76.2858 54.3642 75.9709C54.6387 75.6561 54.9968 75.4987 55.4399 75.4987C55.6627 75.4987 55.8793 75.5515 56.0897 75.6561L56.091 75.6549ZM56.2842 76.8897C56.2633 76.6609 56.2128 76.4776 56.134 76.3411C55.9888 76.0865 55.7476 75.9599 55.4091 75.9599C55.1667 75.9599 54.9624 76.0472 54.7987 76.2231C54.635 76.3989 54.5476 76.6203 54.5377 76.8909H56.2854L56.2842 76.8897Z" fill="url(#paint8_linear_93_1135)"/>
<path id="Vector_10" d="M62.4414 75.7348C62.6641 75.9069 62.7971 76.2033 62.8426 76.624H62.3281C62.2974 76.4309 62.226 76.2698 62.114 76.1406C62.002 76.0127 61.8235 75.9488 61.5761 75.9488C61.2389 75.9488 60.9989 76.1136 60.8537 76.4419C60.7601 76.6547 60.7121 76.9179 60.7121 77.2315C60.7121 77.5451 60.7786 77.812 60.9115 78.0273C61.0444 78.2425 61.2537 78.3495 61.5404 78.3495C61.7595 78.3495 61.9331 78.2831 62.0623 78.149C62.1903 78.015 62.2789 77.8317 62.3281 77.598H62.8426C62.7835 78.015 62.6371 78.32 62.402 78.5118C62.1669 78.7049 61.8666 78.8008 61.4998 78.8008C61.0887 78.8008 60.7601 78.6508 60.5152 78.3507C60.2703 78.0506 60.1484 77.6755 60.1484 77.2254C60.1484 76.6732 60.2826 76.2439 60.5509 75.9365C60.8192 75.629 61.1614 75.4753 61.5761 75.4753C61.9306 75.4753 62.2186 75.5613 62.4414 75.7335V75.7348Z" fill="url(#paint9_linear_93_1135)"/>
<path id="Vector_11" d="M66.3633 74.6906H66.8975V75.5687H67.3997V76.0004H66.8975V78.0518C66.8975 78.1613 66.9344 78.2351 67.0095 78.272C67.0501 78.2941 67.119 78.304 67.215 78.304C67.2409 78.304 67.268 78.304 67.2975 78.3027C67.327 78.3027 67.3615 78.299 67.3997 78.2954V78.7123C67.3393 78.7295 67.2753 78.743 67.2101 78.7504C67.1449 78.7578 67.0735 78.7627 66.9972 78.7627C66.751 78.7627 66.5837 78.7 66.495 78.5733C66.4064 78.4466 66.3633 78.2831 66.3633 78.0814V76.0004H65.9375V75.5687H66.3633V74.6906Z" fill="url(#paint10_linear_93_1135)"/>
<path id="Vector_12" d="M72.7785 75.6549C72.9877 75.7594 73.1477 75.8947 73.2572 76.062C73.3631 76.2206 73.4332 76.4051 73.4689 76.6167C73.4997 76.7618 73.5157 76.993 73.5157 77.3091H71.2092C71.2191 77.6276 71.2942 77.8834 71.4357 78.0765C71.5772 78.2696 71.7951 78.3655 72.0905 78.3655C72.3662 78.3655 72.5865 78.2745 72.7514 78.0925C72.8449 77.9867 72.9114 77.865 72.9508 77.726H73.4702C73.4566 77.8416 73.4111 77.9707 73.3335 78.1122C73.256 78.2536 73.1699 78.3705 73.0739 78.4602C72.9139 78.6164 72.7145 78.7222 72.4769 78.7776C72.3502 78.8083 72.2062 78.8243 72.0449 78.8243C71.6535 78.8243 71.3212 78.6816 71.0492 78.3975C70.7772 78.1134 70.6406 77.7137 70.6406 77.2008C70.6406 76.688 70.7772 76.2858 71.0517 75.971C71.3262 75.6561 71.6843 75.4987 72.1274 75.4987C72.3502 75.4987 72.5668 75.5516 72.7772 75.6561L72.7785 75.6549ZM72.9717 76.8897C72.9508 76.6609 72.9003 76.4777 72.8215 76.3412C72.6763 76.0866 72.4351 75.9599 72.0966 75.9599C71.8542 75.9599 71.6499 76.0472 71.4862 76.2231C71.3225 76.399 71.2351 76.6203 71.2252 76.8909H72.9729L72.9717 76.8897Z" fill="url(#paint11_linear_93_1135)"/>
<path id="Vector_13" d="M78.7887 75.6647C78.8823 75.7237 78.9894 75.8258 79.1087 75.9734V74.3856H79.6171V78.7123H79.1407V78.2745C79.0177 78.4676 78.8712 78.6078 78.7026 78.6939C78.534 78.7799 78.3407 78.823 78.1241 78.823C77.7734 78.823 77.4706 78.6754 77.2134 78.3815C76.9574 78.0875 76.8281 77.6952 76.8281 77.2057C76.8281 76.7482 76.9451 76.3509 77.1789 76.0152C77.4127 75.6794 77.7475 75.5122 78.182 75.5122C78.4232 75.5122 78.6251 75.5626 78.7875 75.6647H78.7887ZM77.6023 78.0211C77.7451 78.2486 77.974 78.3618 78.2891 78.3618C78.534 78.3618 78.7346 78.2573 78.8921 78.0469C79.0497 77.8366 79.1284 77.5353 79.1284 77.1417C79.1284 76.7482 79.0472 76.4506 78.8847 76.2599C78.7223 76.0693 78.5217 75.9734 78.2829 75.9734C78.017 75.9734 77.8004 76.0754 77.6355 76.2784C77.4706 76.4813 77.3869 76.7814 77.3869 77.1762C77.3869 77.5132 77.4583 77.7948 77.6011 78.0211H77.6023Z" fill="url(#paint12_linear_93_1135)"/>
<path id="Vector_14" d="M64.4502 9.97679C58.5573 18.0522 55.4004 27.0635 54.972 37.0378C53.244 34.4034 50.9044 33.5733 47.8828 34.535C48.8404 33.2264 49.7364 31.8957 50.5585 30.5158C51.3917 29.1174 52.1548 27.6834 52.844 26.2087C53.5284 24.744 54.14 23.2509 54.6742 21.7246C55.2071 20.1996 55.6674 18.6524 56.044 17.0806C56.4231 15.499 56.7222 13.9038 56.9437 12.2927C57.164 10.695 57.2957 9.09128 57.3622 7.48013C59.0877 10.1182 61.4397 10.9422 64.4514 9.97679H64.4502Z" fill="black"/>
<path id="Vector_15" d="M45.2696 36.8361C45.3016 29.0854 42.5607 22.5093 37.0234 17.0597C39.6142 17.4803 41.6339 16.6317 43.1539 14.4831C43.1539 14.6048 43.1539 14.6946 43.1539 14.7856C43.1133 21.0199 45.0136 26.5949 48.8597 31.5046C49.0111 31.6977 49.0333 31.8207 48.8881 32.0334C47.9244 33.4429 46.9582 34.8462 45.8173 36.1228C45.6228 36.3405 45.4604 36.5865 45.2696 36.8361Z" fill="black"/>
<path id="Vector_16" d="M32.8974 36.4807C31.3663 34.5288 29.3995 33.7995 26.9688 34.2902C31.9743 28.7939 34.3078 22.3432 33.8795 14.8594C35.0007 16.2836 36.4838 17.2613 37.6407 18.5712C37.7971 18.7483 38.0531 18.9204 38.0715 19.1135C38.0887 19.2845 37.8401 19.4813 37.7072 19.6657C35.4106 22.8438 33.9152 26.3637 33.2309 30.2218C32.9023 32.0715 32.7706 33.9397 32.8949 35.8202C32.9084 36.033 32.8974 36.247 32.8974 36.4807Z" fill="black"/>
<path id="Vector_17" d="M18.1962 14.7943C20.8977 14.7943 23.0885 16.9626 23.0848 19.6314C23.0811 22.3482 20.9273 24.5521 18.2762 24.5558C15.5205 24.5595 13.3113 22.4085 13.3125 19.7249C13.3125 16.9613 15.4614 14.7943 18.1974 14.7943H18.1962ZM20.83 19.6744C20.8448 18.2072 19.694 17.0597 18.1876 17.04C16.7316 17.0204 15.5759 18.19 15.566 19.6954C15.5562 21.1245 16.7254 22.2904 18.1802 22.3015C19.6583 22.3125 20.8165 21.1663 20.8313 19.6744H20.83Z" fill="black"/>
<path id="Vector_18" d="M50.054 44.5033C47.4127 44.5574 45.1432 42.271 45.1801 39.5677C45.2146 37.0084 47.2971 34.797 50.0417 34.7626C52.7457 34.7282 54.966 36.942 54.9598 39.6268C54.9524 42.5121 52.5426 44.5783 50.054 44.5045V44.5033ZM50.0392 42.26C51.4447 42.2882 52.6423 41.1494 52.71 39.7965C52.7863 38.2604 51.5518 37.0194 50.1611 36.9973C48.6386 36.9739 47.4657 38.0931 47.4386 39.6145C47.4127 41.0645 48.5586 42.2304 50.0404 42.26H50.0392Z" fill="black"/>
<path id="Vector_19" d="M67.147 4.87892C67.1753 7.66952 64.7396 10.0038 61.7956 9.73694C59.3993 9.51926 57.3243 7.48257 57.3759 4.78176C57.4289 1.94566 59.7759 -0.0319914 62.2916 -1.45379e-05C65.2221 0.0381117 67.1716 2.44745 67.1458 4.87769L67.147 4.87892ZM59.6135 4.90721C59.6049 6.32772 60.7999 7.51332 62.2596 7.53177C63.6947 7.55022 64.8898 6.35232 64.9046 4.88015C64.9193 3.44119 63.7255 2.25681 62.2473 2.24329C60.8123 2.22976 59.6233 3.43258 59.6135 4.90721Z" fill="black"/>
<path id="Vector_20" d="M28.3594 44.5032C25.6689 44.5032 23.4572 42.3435 23.4609 39.7055C23.4646 36.8152 25.696 34.781 28.2991 34.7564C31.0462 34.7306 33.2517 36.9382 33.2419 39.6329C33.2308 42.3509 31.0732 44.5044 28.3606 44.5044L28.3594 44.5032ZM28.3446 42.2599C29.8216 42.2611 30.9957 41.0952 30.9982 39.6231C31.0006 38.1755 29.8216 37.0009 28.3619 36.9985C26.8936 36.9948 25.7096 38.1706 25.7059 39.6354C25.7034 41.0829 26.8849 42.2575 28.3446 42.2587V42.2599Z" fill="black"/>
<path id="Vector_21" d="M43.283 11.6962C43.283 14.3798 41.0344 16.5886 38.2799 16.564C35.5599 16.5407 33.5169 14.2715 33.5156 11.706C33.5156 8.97321 35.7187 6.84797 38.3082 6.82829C41.1107 6.80616 43.283 8.95722 43.283 11.6949V11.6962ZM41.0356 11.7109C41.0516 10.2707 39.8959 9.09373 38.4498 9.07652C36.9778 9.0593 35.7901 10.1982 35.7704 11.6482C35.7495 13.1634 36.8929 14.3269 38.4178 14.3392C39.8652 14.3515 41.0196 13.1917 41.0356 11.7109Z" fill="black"/>
<path id="Vector_22" d="M23.8381 36.4684C23.7643 31.7321 21.8369 28.0056 18.0781 25.1781C20.0301 25.1756 21.5637 24.3774 22.7464 22.8105C22.7821 23.3701 22.7747 23.8978 22.8314 24.4217C23.192 27.7165 24.5754 30.5096 26.9557 32.8082C27.1809 33.0259 27.1809 33.1415 26.9717 33.358C26.3046 34.0517 25.6695 34.7748 24.888 35.3492C24.4855 35.6456 24.168 36.0256 23.8369 36.4671L23.8381 36.4684Z" fill="black"/>
<path id="Vector_23" d="M64.4502 9.97679C58.5573 18.0522 55.4004 27.0635 54.972 37.0378C53.244 34.4034 50.9044 33.5733 47.8828 34.535C48.8404 33.2264 49.7364 31.8957 50.5585 30.5158C51.3917 29.1174 52.1548 27.6834 52.844 26.2087C53.5284 24.744 54.14 23.2509 54.6742 21.7246C55.2071 20.1996 55.6674 18.6524 56.044 17.0806C56.4231 15.499 56.7222 13.9038 56.9437 12.2927C57.164 10.695 57.2957 9.09128 57.3622 7.48013C59.0877 10.1182 61.4397 10.9422 64.4514 9.97679H64.4502Z" fill="url(#paint13_linear_93_1135)"/>
<path id="Vector_24" d="M45.2696 36.8361C45.3016 29.0854 42.5607 22.5093 37.0234 17.0597C39.6142 17.4803 41.6339 16.6317 43.1539 14.4831C43.1539 14.6048 43.1539 14.6946 43.1539 14.7856C43.1133 21.0199 45.0136 26.5949 48.8597 31.5046C49.0111 31.6977 49.0333 31.8207 48.8881 32.0334C47.9244 33.4429 46.9582 34.8462 45.8173 36.1228C45.6228 36.3405 45.4604 36.5865 45.2696 36.8361Z" fill="url(#paint14_linear_93_1135)"/>
<path id="Vector_25" d="M32.8974 36.4807C31.3663 34.5288 29.3995 33.7995 26.9688 34.2902C31.9743 28.7939 34.3078 22.3432 33.8795 14.8594C35.0007 16.2836 36.4838 17.2613 37.6407 18.5712C37.7971 18.7483 38.0531 18.9204 38.0715 19.1135C38.0887 19.2845 37.8401 19.4813 37.7072 19.6657C35.4106 22.8438 33.9152 26.3637 33.2309 30.2218C32.9023 32.0715 32.7706 33.9397 32.8949 35.8202C32.9084 36.033 32.8974 36.247 32.8974 36.4807Z" fill="url(#paint15_linear_93_1135)"/>
<path id="Vector_26" d="M18.1962 14.7943C20.8977 14.7943 23.0885 16.9626 23.0848 19.6314C23.0811 22.3482 20.9273 24.5521 18.2762 24.5558C15.5205 24.5595 13.3113 22.4085 13.3125 19.7249C13.3125 16.9613 15.4614 14.7943 18.1974 14.7943H18.1962ZM20.83 19.6744C20.8448 18.2072 19.694 17.0597 18.1876 17.04C16.7316 17.0204 15.5759 18.19 15.566 19.6954C15.5562 21.1245 16.7254 22.2904 18.1802 22.3015C19.6583 22.3125 20.8165 21.1663 20.8313 19.6744H20.83Z" fill="url(#paint16_linear_93_1135)"/>
<path id="Vector_27" d="M50.054 44.5033C47.4127 44.5574 45.1432 42.271 45.1801 39.5677C45.2146 37.0084 47.2971 34.797 50.0417 34.7626C52.7457 34.7282 54.966 36.942 54.9598 39.6268C54.9524 42.5121 52.5426 44.5783 50.054 44.5045V44.5033ZM50.0392 42.26C51.4447 42.2882 52.6423 41.1494 52.71 39.7965C52.7863 38.2604 51.5518 37.0194 50.1611 36.9973C48.6386 36.9739 47.4657 38.0931 47.4386 39.6145C47.4127 41.0645 48.5586 42.2304 50.0404 42.26H50.0392Z" fill="url(#paint17_linear_93_1135)"/>
<path id="Vector_28" d="M67.147 4.87892C67.1753 7.66952 64.7396 10.0038 61.7956 9.73694C59.3993 9.51926 57.3243 7.48257 57.3759 4.78176C57.4289 1.94566 59.7759 -0.0319914 62.2916 -1.45379e-05C65.2221 0.0381117 67.1716 2.44745 67.1458 4.87769L67.147 4.87892ZM59.6135 4.90721C59.6049 6.32772 60.7999 7.51332 62.2596 7.53177C63.6947 7.55022 64.8898 6.35232 64.9046 4.88015C64.9193 3.44119 63.7255 2.25681 62.2473 2.24329C60.8123 2.22976 59.6233 3.43258 59.6135 4.90721Z" fill="url(#paint18_linear_93_1135)"/>
<path id="Vector_29" d="M28.3594 44.5032C25.6689 44.5032 23.4572 42.3435 23.4609 39.7055C23.4646 36.8152 25.696 34.781 28.2991 34.7564C31.0462 34.7306 33.2517 36.9382 33.2419 39.6329C33.2308 42.3509 31.0732 44.5044 28.3606 44.5044L28.3594 44.5032ZM28.3446 42.2599C29.8216 42.2611 30.9957 41.0952 30.9982 39.6231C31.0006 38.1755 29.8216 37.0009 28.3619 36.9985C26.8936 36.9948 25.7096 38.1706 25.7059 39.6354C25.7034 41.0829 26.8849 42.2575 28.3446 42.2587V42.2599Z" fill="url(#paint19_linear_93_1135)"/>
<path id="Vector_30" d="M43.283 11.6962C43.283 14.3798 41.0344 16.5886 38.2799 16.564C35.5599 16.5407 33.5169 14.2715 33.5156 11.706C33.5156 8.97321 35.7187 6.84797 38.3082 6.82829C41.1107 6.80616 43.283 8.95722 43.283 11.6949V11.6962ZM41.0356 11.7109C41.0516 10.2707 39.8959 9.09373 38.4498 9.07652C36.9778 9.0593 35.7901 10.1982 35.7704 11.6482C35.7495 13.1634 36.8929 14.3269 38.4178 14.3392C39.8652 14.3515 41.0196 13.1917 41.0356 11.7109Z" fill="url(#paint20_linear_93_1135)"/>
<path id="Vector_31" d="M23.8381 36.4684C23.7643 31.7321 21.8369 28.0056 18.0781 25.1781C20.0301 25.1756 21.5637 24.3774 22.7464 22.8105C22.7821 23.3701 22.7747 23.8978 22.8314 24.4217C23.192 27.7165 24.5754 30.5096 26.9557 32.8082C27.1809 33.0259 27.1809 33.1415 26.9717 33.358C26.3046 34.0517 25.6695 34.7748 24.888 35.3492C24.4855 35.6456 24.168 36.0256 23.8369 36.4671L23.8381 36.4684Z" fill="url(#paint21_linear_93_1135)"/>
<path id="Vector_32" d="M10.5883 65.3226L8.43323 56.8942L6.29662 65.3226H3.51631L0 53.0484H2.928L5.08308 61.9183L7.42154 53.0484H9.46585L11.7858 61.9183L13.9225 53.0484H16.8689L13.3698 65.3226H10.5895H10.5883Z" fill="black"/>
<path id="Vector_33" d="M18.1016 65.3225V53.0483H26.7933V55.2929H20.7157V57.9617H26.664V60.2062H20.7157V63.0583H26.7933V65.3213H18.1016V65.3225Z" fill="black"/>
<path id="Vector_34" d="M28.25 59.1942C28.25 55.4221 31.1042 52.8456 34.6955 52.8456C37.4943 52.8456 39.0598 54.3177 39.9251 55.8452L37.6777 56.9497C37.162 55.9559 36.0568 55.1651 34.6943 55.1651C32.5577 55.1651 30.938 56.8771 30.938 59.1954C30.938 61.5137 32.5589 63.2257 34.6943 63.2257C36.0568 63.2257 37.162 62.4534 37.6777 61.4412L39.9251 62.5272C39.0414 64.0547 37.4943 65.5453 34.6955 65.5453C31.1042 65.5453 28.25 62.9687 28.25 59.1967V59.1942Z" fill="black"/>
<path id="Vector_35" d="M47.3071 52.8456C51.0264 52.8456 53.7341 55.4959 53.7341 59.1942C53.7341 62.8924 51.0277 65.5428 47.3071 65.5428C43.5864 65.5428 40.8984 62.8924 40.8984 59.1942C40.8984 55.4959 43.6049 52.8456 47.3071 52.8456ZM47.3071 55.1639C45.0424 55.1639 43.5877 56.8943 43.5877 59.1942C43.5877 61.4941 45.0424 63.2245 47.3071 63.2245C49.5717 63.2245 51.0449 61.4768 51.0449 59.1942C51.0449 56.9115 49.5717 55.1639 47.3071 55.1639Z" fill="black"/>
<path id="Vector_36" d="M64.0495 65.3225L58.1935 57.0787V65.3225H55.5781V53.0483H58.2674L63.9572 60.9983V53.0483H66.5726V65.3225H64.0495Z" fill="black"/>
<path id="Vector_37" d="M77.4792 65.3225L71.6232 57.0787V65.3225H69.0078V53.0483H71.697L77.3869 60.9983V53.0483H80.0023V65.3225H77.4792Z" fill="black"/>
<path id="Vector_38" d="M10.5883 65.3226L8.43323 56.8942L6.29662 65.3226H3.51631L0 53.0484H2.928L5.08308 61.9183L7.42154 53.0484H9.46585L11.7858 61.9183L13.9225 53.0484H16.8689L13.3698 65.3226H10.5895H10.5883Z" fill="url(#paint22_linear_93_1135)"/>
<path id="Vector_39" d="M18.1016 65.3225V53.0483H26.7933V55.2929H20.7157V57.9617H26.664V60.2062H20.7157V63.0583H26.7933V65.3213H18.1016V65.3225Z" fill="url(#paint23_linear_93_1135)"/>
<path id="Vector_40" d="M28.25 59.1942C28.25 55.4221 31.1042 52.8456 34.6955 52.8456C37.4943 52.8456 39.0598 54.3177 39.9251 55.8452L37.6777 56.9497C37.162 55.9559 36.0568 55.1651 34.6943 55.1651C32.5577 55.1651 30.938 56.8771 30.938 59.1954C30.938 61.5137 32.5589 63.2257 34.6943 63.2257C36.0568 63.2257 37.162 62.4534 37.6777 61.4412L39.9251 62.5272C39.0414 64.0547 37.4943 65.5453 34.6955 65.5453C31.1042 65.5453 28.25 62.9687 28.25 59.1967V59.1942Z" fill="url(#paint24_linear_93_1135)"/>
<path id="Vector_41" d="M47.3071 52.8456C51.0264 52.8456 53.7341 55.4959 53.7341 59.1942C53.7341 62.8924 51.0277 65.5428 47.3071 65.5428C43.5864 65.5428 40.8984 62.8924 40.8984 59.1942C40.8984 55.4959 43.6049 52.8456 47.3071 52.8456ZM47.3071 55.1639C45.0424 55.1639 43.5877 56.8943 43.5877 59.1942C43.5877 61.4941 45.0424 63.2245 47.3071 63.2245C49.5717 63.2245 51.0449 61.4768 51.0449 59.1942C51.0449 56.9115 49.5717 55.1639 47.3071 55.1639Z" fill="url(#paint25_linear_93_1135)"/>
<path id="Vector_42" d="M64.0495 65.3225L58.1935 57.0787V65.3225H55.5781V53.0483H58.2674L63.9572 60.9983V53.0483H66.5726V65.3225H64.0495Z" fill="url(#paint26_linear_93_1135)"/>
<path id="Vector_43" d="M77.4792 65.3225L71.6232 57.0787V65.3225H69.0078V53.0483H71.697L77.3869 60.9983V53.0483H80.0023V65.3225H77.4792Z" fill="url(#paint27_linear_93_1135)"/>
</g>
<defs>
<linearGradient id="paint0_linear_93_1135" x1="0.595909" y1="77.2869" x2="4.25923" y2="75.8769" gradientUnits="userSpaceOnUse">
<stop stop-color="#3A60DB"/>
<stop offset="0.15" stop-color="#3C69D6"/>
<stop offset="0.41" stop-color="#4282CA"/>
<stop offset="0.74" stop-color="#4BABB8"/>
<stop offset="0.99" stop-color="#54D1A7"/>
</linearGradient>
<linearGradient id="paint1_linear_93_1135" x1="7.38495" y1="77.0778" x2="9.19754" y2="76.3808" gradientUnits="userSpaceOnUse">
<stop stop-color="#3A60DB"/>
<stop offset="0.15" stop-color="#3C69D6"/>
<stop offset="0.41" stop-color="#4282CA"/>
<stop offset="0.74" stop-color="#4BABB8"/>
<stop offset="0.99" stop-color="#54D1A7"/>
</linearGradient>
<linearGradient id="paint2_linear_93_1135" x1="12.0857" y1="77.9079" x2="15.007" y2="76.7837" gradientUnits="userSpaceOnUse">
<stop stop-color="#3A60DB"/>
<stop offset="0.15" stop-color="#3C69D6"/>
<stop offset="0.41" stop-color="#4282CA"/>
<stop offset="0.74" stop-color="#4BABB8"/>
<stop offset="0.99" stop-color="#54D1A7"/>
</linearGradient>
<linearGradient id="paint3_linear_93_1135" x1="17.7773" y1="78.1072" x2="21.5058" y2="76.6726" gradientUnits="userSpaceOnUse">
<stop stop-color="#3A60DB"/>
<stop offset="0.15" stop-color="#3C69D6"/>
<stop offset="0.41" stop-color="#4282CA"/>
<stop offset="0.74" stop-color="#4BABB8"/>
<stop offset="0.99" stop-color="#54D1A7"/>
</linearGradient>
<linearGradient id="paint4_linear_93_1135" x1="28.1208" y1="77.2906" x2="31.9625" y2="75.8129" gradientUnits="userSpaceOnUse">
<stop stop-color="#3A60DB"/>
<stop offset="0.15" stop-color="#3C69D6"/>
<stop offset="0.41" stop-color="#4282CA"/>
<stop offset="0.74" stop-color="#4BABB8"/>
<stop offset="0.99" stop-color="#54D1A7"/>
</linearGradient>
<linearGradient id="paint5_linear_93_1135" x1="35.2392" y1="77.7062" x2="38.1212" y2="76.5979" gradientUnits="userSpaceOnUse">
<stop stop-color="#3A60DB"/>
<stop offset="0.15" stop-color="#3C69D6"/>
<stop offset="0.41" stop-color="#4282CA"/>
<stop offset="0.74" stop-color="#4BABB8"/>
<stop offset="0.99" stop-color="#54D1A7"/>
</linearGradient>
<linearGradient id="paint6_linear_93_1135" x1="41.3034" y1="77.7715" x2="44.349" y2="76.5991" gradientUnits="userSpaceOnUse">
<stop stop-color="#3A60DB"/>
<stop offset="0.15" stop-color="#3C69D6"/>
<stop offset="0.41" stop-color="#4282CA"/>
<stop offset="0.74" stop-color="#4BABB8"/>
<stop offset="0.99" stop-color="#54D1A7"/>
</linearGradient>
<linearGradient id="paint7_linear_93_1135" x1="47.5378" y1="77.7715" x2="50.5834" y2="76.5991" gradientUnits="userSpaceOnUse">
<stop stop-color="#3A60DB"/>
<stop offset="0.15" stop-color="#3C69D6"/>
<stop offset="0.41" stop-color="#4282CA"/>
<stop offset="0.74" stop-color="#4BABB8"/>
<stop offset="0.99" stop-color="#54D1A7"/>
</linearGradient>
<linearGradient id="paint8_linear_93_1135" x1="53.9913" y1="77.7124" x2="56.8203" y2="76.6239" gradientUnits="userSpaceOnUse">
<stop stop-color="#3A60DB"/>
<stop offset="0.15" stop-color="#3C69D6"/>
<stop offset="0.41" stop-color="#4282CA"/>
<stop offset="0.74" stop-color="#4BABB8"/>
<stop offset="0.99" stop-color="#54D1A7"/>
</linearGradient>
<linearGradient id="paint9_linear_93_1135" x1="60.1718" y1="77.673" x2="62.9147" y2="76.6177" gradientUnits="userSpaceOnUse">
<stop stop-color="#3A60DB"/>
<stop offset="0.15" stop-color="#3C69D6"/>
<stop offset="0.41" stop-color="#4282CA"/>
<stop offset="0.74" stop-color="#4BABB8"/>
<stop offset="0.99" stop-color="#54D1A7"/>
</linearGradient>
<linearGradient id="paint10_linear_93_1135" x1="65.9006" y1="77.0778" x2="67.7132" y2="76.3808" gradientUnits="userSpaceOnUse">
<stop stop-color="#3A60DB"/>
<stop offset="0.15" stop-color="#3C69D6"/>
<stop offset="0.41" stop-color="#4282CA"/>
<stop offset="0.74" stop-color="#4BABB8"/>
<stop offset="0.99" stop-color="#54D1A7"/>
</linearGradient>
<linearGradient id="paint11_linear_93_1135" x1="70.6775" y1="77.7125" x2="73.5066" y2="76.6239" gradientUnits="userSpaceOnUse">
<stop stop-color="#3A60DB"/>
<stop offset="0.15" stop-color="#3C69D6"/>
<stop offset="0.41" stop-color="#4282CA"/>
<stop offset="0.74" stop-color="#4BABB8"/>
<stop offset="0.99" stop-color="#54D1A7"/>
</linearGradient>
<linearGradient id="paint12_linear_93_1135" x1="76.7961" y1="77.5341" x2="80.3093" y2="76.1832" gradientUnits="userSpaceOnUse">
<stop stop-color="#3A60DB"/>
<stop offset="0.15" stop-color="#3C69D6"/>
<stop offset="0.41" stop-color="#4282CA"/>
<stop offset="0.74" stop-color="#4BABB8"/>
<stop offset="0.99" stop-color="#54D1A7"/>
</linearGradient>
<linearGradient id="paint13_linear_93_1135" x1="18.9905" y1="35.3701" x2="71.4607" y2="15.1808" gradientUnits="userSpaceOnUse">
<stop stop-color="#3A60DB"/>
<stop offset="0.15" stop-color="#3C69D6"/>
<stop offset="0.41" stop-color="#4282CA"/>
<stop offset="0.74" stop-color="#4BABB8"/>
<stop offset="0.99" stop-color="#54D1A7"/>
</linearGradient>
<linearGradient id="paint14_linear_93_1135" x1="18.9902" y1="35.3701" x2="71.4604" y2="15.1808" gradientUnits="userSpaceOnUse">
<stop stop-color="#3A60DB"/>
<stop offset="0.15" stop-color="#3C69D6"/>
<stop offset="0.41" stop-color="#4282CA"/>
<stop offset="0.74" stop-color="#4BABB8"/>
<stop offset="0.99" stop-color="#54D1A7"/>
</linearGradient>
<linearGradient id="paint15_linear_93_1135" x1="18.9946" y1="35.3701" x2="71.4648" y2="15.1808" gradientUnits="userSpaceOnUse">
<stop stop-color="#3A60DB"/>
<stop offset="0.15" stop-color="#3C69D6"/>
<stop offset="0.41" stop-color="#4282CA"/>
<stop offset="0.74" stop-color="#4BABB8"/>
<stop offset="0.99" stop-color="#54D1A7"/>
</linearGradient>
<linearGradient id="paint16_linear_93_1135" x1="18.9888" y1="35.3702" x2="71.459" y2="15.1809" gradientUnits="userSpaceOnUse">
<stop stop-color="#3A60DB"/>
<stop offset="0.15" stop-color="#3C69D6"/>
<stop offset="0.41" stop-color="#4282CA"/>
<stop offset="0.74" stop-color="#4BABB8"/>
<stop offset="0.99" stop-color="#54D1A7"/>
</linearGradient>
<linearGradient id="paint17_linear_93_1135" x1="18.9894" y1="35.3702" x2="71.4596" y2="15.1809" gradientUnits="userSpaceOnUse">
<stop stop-color="#3A60DB"/>
<stop offset="0.15" stop-color="#3C69D6"/>
<stop offset="0.41" stop-color="#4282CA"/>
<stop offset="0.74" stop-color="#4BABB8"/>
<stop offset="0.99" stop-color="#54D1A7"/>
</linearGradient>
<linearGradient id="paint18_linear_93_1135" x1="18.9907" y1="35.3701" x2="71.4609" y2="15.1808" gradientUnits="userSpaceOnUse">
<stop stop-color="#3A60DB"/>
<stop offset="0.15" stop-color="#3C69D6"/>
<stop offset="0.41" stop-color="#4282CA"/>
<stop offset="0.74" stop-color="#4BABB8"/>
<stop offset="0.99" stop-color="#54D1A7"/>
</linearGradient>
<linearGradient id="paint19_linear_93_1135" x1="18.9883" y1="35.3701" x2="71.4585" y2="15.1808" gradientUnits="userSpaceOnUse">
<stop stop-color="#3A60DB"/>
<stop offset="0.15" stop-color="#3C69D6"/>
<stop offset="0.41" stop-color="#4282CA"/>
<stop offset="0.74" stop-color="#4BABB8"/>
<stop offset="0.99" stop-color="#54D1A7"/>
</linearGradient>
<linearGradient id="paint20_linear_93_1135" x1="18.9876" y1="35.3701" x2="71.4579" y2="15.1808" gradientUnits="userSpaceOnUse">
<stop stop-color="#3A60DB"/>
<stop offset="0.15" stop-color="#3C69D6"/>
<stop offset="0.41" stop-color="#4282CA"/>
<stop offset="0.74" stop-color="#4BABB8"/>
<stop offset="0.99" stop-color="#54D1A7"/>
</linearGradient>
<linearGradient id="paint21_linear_93_1135" x1="18.9938" y1="35.3701" x2="71.464" y2="15.1808" gradientUnits="userSpaceOnUse">
<stop stop-color="#3A60DB"/>
<stop offset="0.15" stop-color="#3C69D6"/>
<stop offset="0.41" stop-color="#4282CA"/>
<stop offset="0.74" stop-color="#4BABB8"/>
<stop offset="0.99" stop-color="#54D1A7"/>
</linearGradient>
<linearGradient id="paint22_linear_93_1135" x1="6.15877" y1="72.1878" x2="76.8927" y2="44.972" gradientUnits="userSpaceOnUse">
<stop stop-color="#3A60DB"/>
<stop offset="0.15" stop-color="#3C69D6"/>
<stop offset="0.41" stop-color="#4282CA"/>
<stop offset="0.74" stop-color="#4BABB8"/>
<stop offset="0.99" stop-color="#54D1A7"/>
</linearGradient>
<linearGradient id="paint23_linear_93_1135" x1="6.15695" y1="72.1877" x2="76.8909" y2="44.9719" gradientUnits="userSpaceOnUse">
<stop stop-color="#3A60DB"/>
<stop offset="0.15" stop-color="#3C69D6"/>
<stop offset="0.41" stop-color="#4282CA"/>
<stop offset="0.74" stop-color="#4BABB8"/>
<stop offset="0.99" stop-color="#54D1A7"/>
</linearGradient>
<linearGradient id="paint24_linear_93_1135" x1="6.15769" y1="72.1879" x2="76.8916" y2="44.9721" gradientUnits="userSpaceOnUse">
<stop stop-color="#3A60DB"/>
<stop offset="0.15" stop-color="#3C69D6"/>
<stop offset="0.41" stop-color="#4282CA"/>
<stop offset="0.74" stop-color="#4BABB8"/>
<stop offset="0.99" stop-color="#54D1A7"/>
</linearGradient>
<linearGradient id="paint25_linear_93_1135" x1="6.15505" y1="72.1879" x2="76.889" y2="44.972" gradientUnits="userSpaceOnUse">
<stop stop-color="#3A60DB"/>
<stop offset="0.15" stop-color="#3C69D6"/>
<stop offset="0.41" stop-color="#4282CA"/>
<stop offset="0.74" stop-color="#4BABB8"/>
<stop offset="0.99" stop-color="#54D1A7"/>
</linearGradient>
<linearGradient id="paint26_linear_93_1135" x1="6.15659" y1="72.1877" x2="76.8905" y2="44.9719" gradientUnits="userSpaceOnUse">
<stop stop-color="#3A60DB"/>
<stop offset="0.15" stop-color="#3C69D6"/>
<stop offset="0.41" stop-color="#4282CA"/>
<stop offset="0.74" stop-color="#4BABB8"/>
<stop offset="0.99" stop-color="#54D1A7"/>
</linearGradient>
<linearGradient id="paint27_linear_93_1135" x1="6.16103" y1="72.1877" x2="76.8949" y2="44.9719" gradientUnits="userSpaceOnUse">
<stop stop-color="#3A60DB"/>
<stop offset="0.15" stop-color="#3C69D6"/>
<stop offset="0.41" stop-color="#4282CA"/>
<stop offset="0.74" stop-color="#4BABB8"/>
<stop offset="0.99" stop-color="#54D1A7"/>
</linearGradient>
<clipPath id="clip0_93_1135">
<rect width="80" height="80" fill="white"/>
</clipPath>
</defs>
</svg>
