<svg width="20" height="20" viewBox="0 0 20 20" fill="none" xmlns="http://www.w3.org/2000/svg">
<g id="icons8-telegram (2) 2">
<path id="Vector" d="M18.4543 2.6208C18.1543 2.3664 17.6831 2.33 17.1959 2.5256H17.1951C16.6827 2.7312 2.69074 8.7328 2.12114 8.978C2.01754 9.014 1.11274 9.3516 1.20594 10.1036C1.28914 10.7816 2.01634 11.0624 2.10514 11.0948L5.66234 12.3128C5.89834 13.0984 6.76834 15.9968 6.96074 16.616C7.08074 17.002 7.27634 17.5092 7.61914 17.6136C7.91994 17.7296 8.21914 17.6236 8.41274 17.4716L10.5875 15.4544L14.0983 18.1924L14.1819 18.2424C14.4203 18.348 14.6487 18.4008 14.8667 18.4008C15.0351 18.4008 15.1967 18.3692 15.3511 18.306C15.8771 18.09 16.0875 17.5888 16.1095 17.532L18.7319 3.9012C18.8919 3.1732 18.6695 2.8028 18.4543 2.6208ZM8.79954 12.8L7.59954 16L6.39954 12L15.5995 5.2L8.79954 12.8Z" fill="white" fill-opacity="0.6"/>
</g>
</svg>
