<svg width="24" height="24" viewBox="0 0 24 24" fill="none" xmlns="http://www.w3.org/2000/svg">
<g id="menu_FILL0_wght300_GRAD0_opsz24 1">
<path id="Vector" d="M3.25 19.6346C3.0375 19.6346 2.85938 19.5626 2.71563 19.4188C2.57188 19.275 2.5 19.0968 2.5 18.8842C2.5 18.6716 2.57188 18.4935 2.71563 18.35C2.85938 18.2064 3.0375 18.1346 3.25 18.1346H20.75C20.9625 18.1346 21.1406 18.2065 21.2843 18.3503C21.4281 18.4941 21.5 18.6723 21.5 18.8849C21.5 19.0975 21.4281 19.2756 21.2843 19.4192C21.1406 19.5628 20.9625 19.6346 20.75 19.6346H3.25ZM3.25 12.7499C3.0375 12.7499 2.85938 12.678 2.71563 12.5342C2.57188 12.3904 2.5 12.2122 2.5 11.9996C2.5 11.787 2.57188 11.6089 2.71563 11.4654C2.85938 11.3218 3.0375 11.25 3.25 11.25H20.75C20.9625 11.25 21.1406 11.3219 21.2843 11.4657C21.4281 11.6095 21.5 11.7877 21.5 12.0003C21.5 12.2129 21.4281 12.391 21.2843 12.5346C21.1406 12.6781 20.9625 12.7499 20.75 12.7499H3.25ZM3.25 5.86533C3.0375 5.86533 2.85938 5.79342 2.71563 5.64961C2.57188 5.50581 2.5 5.32761 2.5 5.11501C2.5 4.90242 2.57188 4.72434 2.71563 4.58076C2.85938 4.43716 3.0375 4.36536 3.25 4.36536H20.75C20.9625 4.36536 21.1406 4.43726 21.2843 4.58108C21.4281 4.7249 21.5 4.9031 21.5 5.11568C21.5 5.32828 21.4281 5.50637 21.2843 5.64996C21.1406 5.79354 20.9625 5.86533 20.75 5.86533H3.25Z" fill="white"/>
</g>
</svg>
