<svg width="24" height="24" viewBox="0 0 24 24" fill="none" xmlns="http://www.w3.org/2000/svg">
<g id="format_size_FILL1_wght300_GRAD0_opsz24">
<path id="Vector" d="M14.4135 6.62495H10.5096C10.2158 6.62495 9.96608 6.52201 9.76043 6.31613C9.55476 6.11026 9.45193 5.86027 9.45193 5.56615C9.45193 5.27205 9.55476 5.02083 9.76043 4.8125C9.96608 4.60417 10.2158 4.5 10.5096 4.5H20.4423C20.7361 4.5 20.9858 4.60294 21.1915 4.80883C21.3971 5.01471 21.5 5.2647 21.5 5.5588C21.5 5.85292 21.3971 6.10413 21.1915 6.31245C20.9858 6.52078 20.7361 6.62495 20.4423 6.62495H16.5384V18.4423C16.5384 18.7361 16.4355 18.9858 16.2296 19.1915C16.0237 19.3971 15.7737 19.5 15.4796 19.5C15.1855 19.5 14.9343 19.3962 14.726 19.1887C14.5176 18.9811 14.4135 18.7291 14.4135 18.4327V6.62495ZM5.48078 11.5769H3.55768C3.26388 11.5769 3.01415 11.4739 2.8085 11.2681C2.60283 11.0622 2.5 10.8122 2.5 10.5181C2.5 10.224 2.60283 9.97276 2.8085 9.76443C3.01415 9.55609 3.26388 9.45193 3.55768 9.45193H9.5192C9.813 9.45193 10.0627 9.55487 10.2684 9.76075C10.474 9.96662 10.5769 10.2166 10.5769 10.5107C10.5769 10.8048 10.474 11.056 10.2684 11.2644C10.0627 11.4727 9.813 11.5769 9.5192 11.5769H7.5961V18.4423C7.5961 18.7361 7.49316 18.9858 7.28728 19.1915C7.08141 19.3971 6.83142 19.5 6.5373 19.5C6.2432 19.5 5.99358 19.3971 5.78845 19.1915C5.58333 18.9858 5.48078 18.7361 5.48078 18.4423V11.5769Z" fill="white" fill-opacity="0.8"/>
</g>
</svg>
