<svg width="20" height="20" viewBox="0 0 20 20" fill="none" xmlns="http://www.w3.org/2000/svg">
<g id="icons8-twitter (10) 2">
<path id="Vector" d="M18.666 4.62467C18.028 4.908 17.3427 5.09867 16.6234 5.18467C17.358 4.74467 17.9214 4.048 18.1867 3.21734C17.5 3.62467 16.7387 3.92067 15.928 4.08067C15.2794 3.38934 14.3554 2.95734 13.3327 2.95734C11.3687 2.95734 9.7767 4.55 9.7767 6.51334C9.7767 6.792 9.8087 7.064 9.8687 7.32334C6.91336 7.17534 4.29336 5.75934 2.5387 3.60734C2.23336 4.13267 2.05803 4.74334 2.05803 5.396C2.05803 6.62934 2.68536 7.718 3.63936 8.35534C3.0567 8.33667 2.50803 8.17667 2.0287 7.91067C2.0287 7.926 2.0287 7.94 2.0287 7.95534C2.0287 9.67867 3.25403 11.116 4.88136 11.442C4.58336 11.5233 4.2687 11.5667 3.94403 11.5667C3.71536 11.5667 3.49203 11.544 3.27536 11.5033C3.72803 12.916 5.04136 13.9447 6.59736 13.9733C5.3807 14.9273 3.84736 15.496 2.1807 15.496C1.89403 15.496 1.6107 15.4793 1.33203 15.446C2.90603 16.4547 4.7747 17.0433 6.78336 17.0433C13.3247 17.0433 16.9007 11.6247 16.9007 6.92534C16.9007 6.77134 16.8974 6.618 16.8907 6.46534C17.586 5.96334 18.1894 5.33734 18.666 4.62467Z" fill="white" fill-opacity="0.6"/>
</g>
</svg>
