<svg width="245" height="340" viewBox="0 0 245 340" fill="none" xmlns="http://www.w3.org/2000/svg">
<path d="M139.33 181.426L145.76 190.453C162.027 192.94 154.402 175.487 154.402 175.487M139.33 181.426C139.33 181.426 142.42 172.063 154.402 175.487M139.33 181.426C139.33 181.426 149.938 188.008 154.402 175.487M139.33 181.426L143.388 202.829C144.421 208.274 146.764 213.37 150.206 217.656C151.893 219.757 154.054 221.408 156.503 222.467C158.952 223.526 161.616 223.961 164.266 223.736L164.908 223.681L169.35 215.737L154.402 175.487M163.042 302.207L159.018 312.919L116.703 302.142L122.642 286.333L163.042 302.207ZM174.221 303.462L161.245 338L160.818 337.832C157.332 336.462 154.52 333.732 153.002 330.243C151.484 326.753 151.384 322.79 152.723 319.224L152.723 319.224L160.648 298.129L174.221 303.462ZM98.7425 168.091L80.3025 169.856L79.3877 225.967C79.6321 228.716 80.9198 231.259 82.975 233.05C85.0301 234.841 87.6894 235.737 90.383 235.547L102.074 234.724L98.7425 168.091ZM163.753 165.329L151.136 165.163L150.389 231.834C153.177 231.929 155.954 231.435 158.548 230.384C161.141 229.333 163.495 227.747 165.462 225.724C167.43 223.701 168.968 221.286 169.982 218.628C170.996 215.97 171.464 213.127 171.356 210.276L163.753 165.329ZM90.5407 255.52C90.2419 257.454 89.8082 259.364 89.2429 261.234C88.6062 263.065 87.6231 264.758 87.041 266.608C85.1854 272.504 87.7579 279.079 91.8665 283.63C95.4294 287.561 100.028 290.354 105.109 291.671C108.815 292.625 112.669 292.762 116.489 292.894C127.066 293.261 137.915 293.589 147.938 290.113C151.104 288.988 154.163 287.567 157.074 285.868C157.994 285.42 158.804 284.768 159.445 283.959C160.21 282.846 160.307 281.403 160.301 280.043C160.278 275.457 159.369 270.895 159.585 266.315C159.705 263.778 160.169 261.243 159.94 258.714C159.624 255.842 158.447 253.139 156.571 250.977C154.696 248.815 152.212 247.298 149.461 246.635C146.618 246.011 143.669 246.351 140.774 246.635C133.261 247.374 125.715 247.719 118.167 247.669C110.455 247.619 102.79 246.415 95.1166 246.289C92.8473 246.252 92.8931 246.967 92.1706 249.214C91.5051 251.281 90.9609 253.387 90.5407 255.52ZM60.384 251.793C58.3102 251.26 56.1734 251.028 54.0363 251.103C51.791 251.23 49.5978 251.844 47.6026 252.905C45.6073 253.966 43.8558 255.449 42.4645 257.256C41.0731 259.063 40.0738 261.152 39.533 263.384C38.9922 265.616 38.9222 267.941 39.3278 270.203C39.8457 272.653 40.6922 275.019 41.8432 277.232C43.5266 280.726 45.5456 284.212 48.6621 286.451C50.4851 287.76 52.595 288.577 54.6799 289.38L71.0935 295.704C73.5082 296.634 75.9232 297.564 78.3617 298.427C90.6127 302.758 103.385 305.354 116.324 306.145C120.266 306.385 124.267 306.452 128.111 305.534C129.024 305.317 129.997 304.992 130.525 304.201C130.838 303.643 131.023 303.02 131.065 302.379L132.075 295.148C132.217 294.129 132.354 293.058 131.989 292.099C131.526 290.884 130.367 290.12 129.261 289.47C118.47 283.132 105.87 279.635 96.7874 270.936C94.6492 268.888 92.8597 265.642 90.2618 264.251C87.3157 262.673 83.8463 261.773 80.8012 260.319C74.1441 257.141 67.5989 253.489 60.384 251.793ZM76.7708 261.541C82.5724 263.4 107.067 276.28 111.265 280.777C110.702 280.985 91.6085 270.042 91.0356 269.866C85.8276 268.267 80.5908 266.658 75.6451 264.319C74.6502 263.849 69.1815 261.637 69.4291 260.353C69.7086 258.904 75.7409 261.211 76.7708 261.541ZM111.784 149.231L96.1635 161.361C96.1635 161.361 79.681 161.888 80.238 172.663C80.7949 183.438 87.3916 234.456 87.3916 234.456L88.8229 252.009L115.972 259.921C130.641 264.195 146.139 264.535 160.973 260.907L157.747 243.296C157.747 243.296 170.811 163.317 162.941 159.795C155.07 156.274 150.152 157.28 150.152 157.28L140.287 148.477L111.784 149.231ZM158.022 129.64C158.022 145.385 143.785 143.004 126.223 143.004C108.661 143.004 94.4242 145.385 94.4242 129.64C94.4242 113.894 101.378 85.9838 126.223 85.9838C151.923 85.9838 158.022 113.894 158.022 129.64ZM142.753 104.029C151.109 112.575 151.109 126.43 142.753 134.976C134.397 143.522 120.849 143.522 112.492 134.976C104.136 126.43 104.136 112.575 112.492 104.029C120.849 95.4837 134.397 95.4837 142.753 104.029ZM101.394 118.949H109.857L113.591 108.257L114.337 118.949H118.382L120.56 112.712L120.996 118.949H151.052C151.052 112.805 148.666 106.913 144.418 102.569C140.17 98.2248 134.409 95.7842 128.401 95.7842H124.045C118.038 95.7842 112.276 98.2248 108.028 102.569C103.781 106.913 101.394 112.805 101.394 118.949ZM104.898 151.746H147.692V204.565H104.898V151.746ZM107.256 301.703L111.281 312.414L153.595 301.637L147.655 285.828L107.256 301.703ZM109.649 297.627L117.575 318.722L117.575 318.723C118.914 322.288 118.813 326.251 117.295 329.741C115.777 333.23 112.966 335.96 109.48 337.33L109.053 337.498L96.0769 302.96L109.649 297.627ZM191.839 247.692C195.238 246.82 198.762 246.574 202.246 246.965C205.028 247.278 207.895 248.07 209.926 250.039C212.398 252.436 213.193 256.143 213.259 259.626C213.368 266.564 211.117 273.326 206.893 278.756C205.861 280.129 204.634 281.337 203.253 282.339C201.763 283.292 200.175 284.075 198.518 284.672L161.76 299.5C152.09 303.4 142.385 307.312 132.299 309.884C131.75 310.154 131.119 310.191 130.544 309.986C129.969 309.781 129.498 309.351 129.233 308.79C129.225 308.773 129.217 308.756 129.209 308.738C125.989 304.034 123.287 298.979 121.153 293.667C121.052 293.541 120.982 293.391 120.949 293.232C120.917 293.072 120.922 292.907 120.965 292.75C121.008 292.593 121.088 292.448 121.197 292.329C121.306 292.21 121.441 292.12 121.592 292.066L147.591 276.789C149.453 275.694 151.337 274.584 152.883 273.06C154.007 271.946 154.927 270.636 155.6 269.192C156.139 268.041 156.189 265.324 156.877 264.473C157.551 263.64 159.857 263.574 160.922 263.246C162.423 262.776 163.894 262.207 165.325 261.544C171.141 258.883 176.32 255.017 181.895 251.901C185.022 250.073 188.363 248.659 191.839 247.692ZM177.099 259.102C172.633 262.533 166.849 265.686 162.422 269.208C160.911 270.409 135.724 284.891 135.368 286.814C139.498 287.526 165.808 268.703 169.572 266.825C173.336 264.947 176.673 262.298 179.98 259.669C180.822 258.999 184.393 256.985 181.974 256.236C180.612 255.814 178.105 258.416 177.099 259.102ZM244 89.2428C244 97.9241 237.118 104.962 228.629 104.962C220.14 104.962 213.259 97.9241 213.259 89.2428C213.259 80.5615 220.14 73.5239 228.629 73.5239C237.118 73.5239 244 80.5615 244 89.2428ZM210.964 96.7502C210.964 102.84 206.137 107.777 200.182 107.777C194.227 107.777 189.4 102.84 189.4 96.7502C189.4 90.6603 194.227 85.7235 200.182 85.7235C206.137 85.7235 210.964 90.6603 210.964 96.7502ZM18.2911 89.2428C18.2911 94.1258 14.4203 98.0843 9.64552 98.0843C4.87071 98.0843 1 94.1258 1 89.2428C1 84.3598 4.87071 80.4014 9.64552 80.4014C14.4203 80.4014 18.2911 84.3598 18.2911 89.2428ZM29.9442 97.8271C29.9442 101.252 27.229 104.029 23.8796 104.029C20.5301 104.029 17.8148 101.252 17.8148 97.8271C17.8148 94.4017 20.5301 91.6249 23.8796 91.6249C27.229 91.6249 29.9442 94.4017 29.9442 97.8271ZM129.706 7.75854C129.706 11.4912 126.747 14.5171 123.098 14.5171C119.448 14.5171 116.489 11.4912 116.489 7.75854C116.489 4.0259 119.448 1 123.098 1C126.747 1 129.706 4.0259 129.706 7.75854ZM90.1413 185.45L90.732 180.787C90.732 180.787 112.768 182.432 109.325 187.966C105.882 193.499 97.5196 194.002 97.5196 194.002L90.1413 185.45ZM106.775 165.174C108.038 165.316 109.253 165.742 110.336 166.422C111.418 167.102 112.339 168.018 113.034 169.105C113.668 170.096 114.098 171.209 114.301 172.375C114.503 173.542 114.473 174.738 114.212 175.892C113.951 177.046 113.464 178.134 112.781 179.091C112.099 180.048 111.234 180.854 110.239 181.461C109.874 181.681 109.493 181.872 109.1 182.033L95.5551 224.403C95.1627 225.239 94.6125 225.987 93.9363 226.605C93.26 227.223 92.471 227.698 91.6146 228.003C90.7582 228.308 89.8513 228.437 88.9461 228.382C88.0408 228.328 87.155 228.091 86.3397 227.685C85.5243 227.279 84.7955 226.712 84.1951 226.017C83.5946 225.322 83.1344 224.513 82.8409 223.635C82.5474 222.758 82.4263 221.83 82.4848 220.904C82.5432 219.979 82.7799 219.074 83.1813 218.242L97.5858 176.343C97.1934 174.957 97.1412 173.493 97.4339 172.081C97.7265 170.669 98.3549 169.353 99.2635 168.249C100.172 167.144 101.333 166.286 102.643 165.75C103.953 165.214 105.373 165.016 106.775 165.174ZM90.3427 181.185C90.3427 181.185 98.1039 194.746 109.324 187.967L98.4503 230.523H89.2885L79.8108 228.713L82.4645 211.13L90.3427 181.185ZM147.462 158.914C149.317 159.796 150.8 161.329 151.643 163.235C152.486 165.141 152.631 167.293 152.053 169.3L166.458 211.199C166.859 212.031 167.096 212.935 167.154 213.861C167.213 214.786 167.092 215.714 166.798 216.592C166.505 217.469 166.045 218.279 165.444 218.974C164.844 219.669 164.115 220.236 163.3 220.642C162.484 221.048 161.598 221.285 160.693 221.339C159.788 221.394 158.881 221.265 158.024 220.96C157.168 220.655 156.379 220.18 155.703 219.562C155.026 218.944 154.476 218.196 154.084 217.36L140.539 174.99C140.146 174.829 139.765 174.638 139.4 174.417C138.405 173.811 137.54 173.005 136.858 172.048C136.175 171.091 135.689 170.003 135.428 168.849C135.166 167.694 135.136 166.498 135.338 165.332C135.541 164.166 135.971 163.053 136.605 162.061C137.3 160.974 138.221 160.058 139.304 159.379C140.386 158.699 141.602 158.273 142.864 158.131C144.438 157.949 146.03 158.22 147.462 158.914Z" stroke="#A1A7B8" stroke-width="2"/>
</svg>
