<svg width="20" height="20" viewBox="0 0 20 20" fill="none" xmlns="http://www.w3.org/2000/svg">
<g id="icons8-youtube (1) 2">
<path id="Vector" d="M18.0013 14.125C17.8346 15 17.1263 15.6667 16.2513 15.7917C14.8763 16 12.5846 16.25 10.0013 16.25C7.45964 16.25 5.16797 16 3.7513 15.7917C2.8763 15.6667 2.16797 15 2.0013 14.125C1.83464 13.1667 1.66797 11.75 1.66797 10C1.66797 8.25 1.83464 6.83333 2.0013 5.875C2.16797 5 2.8763 4.33333 3.7513 4.20833C5.1263 4 7.41797 3.75 10.0013 3.75C12.5846 3.75 14.8346 4 16.2513 4.20833C17.1263 4.33333 17.8346 5 18.0013 5.875C18.168 6.83333 18.3763 8.25 18.3763 10C18.3346 11.75 18.168 13.1667 18.0013 14.125Z" fill="white" fill-opacity="0.6"/>
<path id="Vector_2" d="M8.33203 12.9166V7.08331L13.332 9.99998L8.33203 12.9166Z" fill="#121E44"/>
</g>
</svg>
